<svg width="1366" height="147" viewBox="0 0 1366 147" fill="none" xmlns="http://www.w3.org/2000/svg">
<path d="M124.908 33.606V21.2379C124.908 19.4235 126.369 17.9273 128.219 17.9273V18.9273C126.927 18.9273 125.908 19.9694 125.908 21.2379V33.606L125.92 33.8443C126.031 34.9419 126.901 35.7958 127.983 35.9049L128.219 35.9166H145.728C146.939 35.9166 147.91 35.0009 148.027 33.8414L148.039 33.606V28.0338C148.039 23.162 144.212 19.1827 139.401 18.9391L138.933 18.9273V17.9273C144.514 17.9275 149.039 22.4528 149.039 28.0338V33.606C149.039 35.4204 147.578 36.9166 145.728 36.9166H128.219C126.404 36.9166 124.908 35.4559 124.908 33.606ZM138.933 17.9273V18.9273H128.219V17.9273H138.933Z" fill="white"/>
<path d="M0.276733 126.752V21.2371C0.276829 19.3937 1.76643 17.9042 3.60974 17.9041V18.9041C2.31871 18.9042 1.27683 19.946 1.27673 21.2371V126.752L1.28845 126.991C1.40784 128.169 2.39949 129.085 3.60974 129.085H21.5961L21.8344 129.073C22.9343 128.962 23.8059 128.091 23.9174 126.991L23.9291 126.752V85.1619H91.0707L91.309 85.1502C92.4089 85.0391 93.2806 84.1679 93.392 83.0681L93.4037 82.8289V69.781C93.4037 68.5704 92.4875 67.5787 91.309 67.4597L91.0707 67.448V66.448C92.914 66.4482 94.4037 67.9377 94.4037 69.781V82.8289C94.4036 84.6722 92.914 86.1617 91.0707 86.1619H24.9291V126.752C24.929 128.595 23.4394 130.085 21.5961 130.085H3.60974C1.76643 130.085 0.276824 128.595 0.276733 126.752ZM108.716 35.4851V21.2371C108.716 19.946 107.674 18.9041 106.383 18.9041V17.9041C108.227 17.9041 109.716 19.3937 109.716 21.2371V35.4851C109.716 37.3286 108.227 38.8191 106.383 38.8191H24.9291V66.448H91.0707V67.448H23.9291V37.8191H106.383L106.622 37.8064C107.801 37.6871 108.716 36.6955 108.716 35.4851ZM106.383 17.9041V18.9041H3.60974V17.9041H106.383Z" fill="white"/>
<path d="M124.908 126.775V46.767C124.908 44.9386 126.39 43.4564 128.219 43.4564V44.4564C126.942 44.4564 125.908 45.4909 125.908 46.767V126.775C125.908 127.971 126.817 128.955 127.982 129.074L128.219 129.085H145.728C147.004 129.085 148.039 128.051 148.039 126.775V46.767C148.039 45.4909 147.004 44.4564 145.728 44.4564V43.4564C147.557 43.4564 149.039 44.9386 149.039 46.767V126.775C149.039 128.603 147.557 130.085 145.728 130.085H128.219C126.39 130.085 124.908 128.603 124.908 126.775ZM145.728 43.4564V44.4564H128.219V43.4564H145.728Z" fill="white"/>
<path d="M169.173 126.775V46.7671C169.173 44.9463 170.663 43.4565 172.484 43.4565V44.4565L172.248 44.4683C171.089 44.5875 170.173 45.578 170.173 46.7671V126.775L170.185 127.009C170.296 128.092 171.166 128.961 172.248 129.073L172.484 129.085H189.993L190.229 129.073C191.311 128.962 192.181 128.092 192.292 127.009L192.304 126.775V82.644C193.362 80.4514 194.782 78.2053 196.563 75.9204L197.084 75.2632C199.916 71.7295 203.653 68.7623 208.319 66.3159C212.419 64.1867 217.176 62.9636 222.59 62.7144C223.758 62.6719 224.707 61.8129 224.821 60.6792L224.833 60.4487V44.9995C224.833 43.686 223.7 42.5761 222.387 42.6665L221.644 42.7212C217.957 43.0291 214.647 43.8941 211.717 45.3169C207.979 47.129 204.786 49.4849 202.181 52.3843C199.576 55.2611 197.469 58.2739 195.883 61.3999C194.297 64.5258 193.097 67.4028 192.304 70.0757V46.7671C192.304 45.5778 191.388 44.5873 190.229 44.4683L189.993 44.4565V43.4565C191.814 43.4565 193.304 44.9463 193.304 46.7671V64.5142C193.809 63.358 194.372 62.1697 194.991 60.9478C196.621 57.734 198.782 54.6488 201.44 51.7134C204.138 48.7112 207.438 46.2807 211.28 44.4175C214.54 42.835 218.227 41.9246 222.324 41.6685V41.6694C224.242 41.5411 225.833 43.1383 225.833 44.9995V60.4487C225.833 62.2632 224.381 63.6447 222.635 63.7124L222.636 63.7134C217.347 63.9569 212.735 65.1498 208.78 67.2036L208.779 67.2026C204.216 69.5958 200.595 72.4813 197.864 75.8892L197.862 75.8911C195.933 78.2837 194.415 80.6159 193.304 82.8716V126.775C193.304 128.596 191.814 130.085 189.993 130.085H172.484C170.663 130.085 169.173 128.596 169.173 126.775ZM189.993 43.4565V44.4565H172.484V43.4565H189.993Z" fill="white"/>
<path d="M233.392 87.0421C233.392 77.5646 235.7 69.3865 240.384 62.5577C245.032 55.7482 251.531 50.5603 259.793 46.96L259.795 46.9591C268.055 43.3828 277.71 41.5987 288.712 41.5987C299.705 41.5987 309.332 43.38 316.891 46.9737C324.469 50.5772 330.117 56.0568 333.776 63.3507L334.092 63.9913C337.296 70.6643 338.724 78.9355 338.481 88.713L338.482 88.7139C338.45 90.5194 336.926 91.9608 335.149 91.961H257.852C258.512 95.6479 259.993 99.0283 262.325 102.112L262.815 102.734C265.323 105.806 268.645 108.284 272.83 110.14C277.272 112.109 282.609 113.112 288.848 113.112V114.112L287.669 114.1C282.018 113.984 277.076 113.032 272.858 111.242L272.425 111.054C268.114 109.142 264.659 106.574 262.041 103.367L261.529 102.718C258.856 99.1841 257.248 95.2649 256.682 90.961H335.149L335.38 90.9493C336.524 90.8329 337.461 89.8644 337.482 88.6964C337.732 78.7067 336.214 70.3927 332.884 63.8009C329.438 56.9324 324.186 51.722 317.147 48.211L316.461 47.877C309.307 44.4757 300.198 42.7106 289.729 42.6036L288.712 42.5987C277.816 42.5987 268.302 44.3659 260.192 47.877C252.083 51.4108 245.74 56.4851 241.21 63.1221L240.79 63.7481C236.518 70.2586 234.392 78.0231 234.392 87.0421C234.392 96.3522 236.724 104.281 241.368 110.873C246.034 117.442 252.491 122.471 260.781 125.937C268.813 129.294 278.014 131.015 288.384 131.119L289.392 131.124C298.718 131.124 306.684 129.891 313.269 127.445L313.901 127.205C320.397 124.66 325.574 121.221 329.454 116.89L329.825 116.468C333.087 112.662 335.307 108.426 336.485 103.76C336.836 102.377 335.742 101.059 334.355 100.978L334.22 100.974V99.9737C336.251 99.9737 337.995 101.88 337.455 104.006C336.238 108.828 333.943 113.201 330.585 117.118L330.582 117.122C326.538 121.797 321.092 125.461 314.266 128.136L314.264 128.137C307.412 130.799 299.104 132.124 289.392 132.124C278.503 132.124 268.831 130.386 260.396 126.859C251.951 123.329 245.339 118.189 240.554 111.452L240.551 111.448C235.772 104.664 233.392 96.5268 233.392 87.0421ZM334.22 99.9737V100.974H317.072L317.05 100.996C316.144 100.996 315.396 101.54 315.011 102.356C313.47 105.595 310.616 108.291 306.471 110.442L306.026 110.668C301.392 112.964 295.672 114.112 288.848 114.112V113.112C295.782 113.112 301.48 111.907 306.011 109.555L306.747 109.158C310.349 107.151 312.774 104.73 314.106 101.929L314.212 101.723C314.701 100.836 315.548 100.175 316.603 100.027L316.657 99.9737H334.22ZM287.67 59.4298H287.692C295.983 59.4298 302.53 61.1056 307.354 64.4581C312.179 67.8106 314.875 72.341 315.441 78.004H257.882C259.308 72.9348 262.457 68.6524 267.286 65.1358L267.759 64.7979C272.696 61.3309 279.079 59.5431 286.907 59.4346L287.67 59.4298ZM287.67 60.4298C279.634 60.4298 273.216 62.1874 268.333 65.6163C263.819 68.7859 260.802 72.5774 259.247 77.004H314.305C313.547 72.1539 311.058 68.249 306.784 65.2794C302.183 62.082 295.86 60.4298 287.692 60.4298H287.67Z" fill="white"/>
<path d="M416.177 86.9968C416.177 81.0501 417.537 76.1026 420.258 72.1335L420.525 71.7526C423.334 67.8465 427.036 64.8749 431.651 62.8395L432.101 62.6462C436.925 60.6075 442.272 59.5876 448.184 59.5876C455.546 59.5876 461.844 61.1731 467.076 64.3444C471.833 67.2439 475.231 71.1863 477.247 76.1472C477.61 77.0077 478.425 77.6188 479.376 77.6188H495.414L495.674 77.6042C496.957 77.4599 497.959 76.264 497.747 74.9685C496.803 68.9339 494.627 63.6436 491.176 59.1589L490.838 58.7272C486.693 53.5173 481.053 49.5076 473.895 46.7214C466.736 43.9578 458.649 42.5534 448.184 42.5534C437.718 42.5535 428.386 44.2748 420.163 47.6726C411.94 51.0704 405.462 56.0544 400.75 62.6462L400.315 63.2683C395.894 69.7459 393.683 77.6486 393.683 86.9968C393.683 96.6465 396.038 104.734 400.75 111.258C405.462 117.781 411.94 122.719 420.163 126.072C428.151 129.32 437.584 130.995 447.248 131.096L448.184 131.101C458.173 131.101 466.804 129.719 474.075 126.933C481.097 124.256 486.675 120.367 490.785 115.266L491.178 114.769C494.802 110.08 497.068 104.598 497.951 98.3229C498.155 96.9414 497.022 95.6962 495.618 95.696L495.641 95.6726H479.625V94.6726H498.057L497.473 95.2556C498.494 95.9297 499.133 97.1376 498.94 98.4616L498.941 98.4626C498.035 104.898 495.706 110.546 491.969 115.381V115.382C487.695 120.893 481.826 125.049 474.432 127.868L474.431 127.867C467.018 130.707 458.261 132.101 448.184 132.101C438.09 132.101 428.172 130.408 419.786 126.999H419.785C411.408 123.583 404.772 118.535 399.939 111.843C395.082 105.117 392.683 96.814 392.683 86.9968C392.683 77.1791 395.082 68.8558 399.937 62.0642C404.768 55.3042 411.404 50.2103 419.781 46.7487C428.143 43.2935 437.608 41.5535 448.184 41.5534C458.412 41.5534 466.441 42.8834 473.567 45.528L474.255 45.7888L474.257 45.7897C481.556 48.6307 487.351 52.7369 491.621 58.1042H491.62C495.385 62.8274 497.736 68.4273 498.734 74.8073L498.76 74.9968C498.963 76.9532 497.326 78.6188 495.414 78.6188H479.376C477.976 78.6188 476.825 77.7215 476.325 76.5349L476.32 76.5231C474.388 71.7695 471.138 67.9918 466.556 65.1989V65.1979C461.509 62.1399 455.399 60.5876 448.184 60.5876C442.389 60.5876 437.177 61.5866 432.49 63.5671C427.826 65.5379 424.125 68.4604 421.338 72.3356C418.587 76.1612 417.177 81.018 417.177 86.9968C417.177 92.9714 418.562 97.6535 421.253 101.486C423.881 105.229 427.45 108.064 431.947 109.968L432.386 110.149L432.389 110.151C437.125 112.089 442.385 113.067 448.184 113.067V114.067L447.082 114.055C441.6 113.939 436.577 112.946 432.011 111.077C427.293 109.168 423.509 106.281 420.703 102.436L420.435 102.061C417.692 98.1551 416.267 93.4409 416.181 87.569L416.177 86.9968ZM479.625 95.6726C478.651 95.6727 477.813 96.3076 477.474 97.2136L477.289 97.694C475.343 102.628 472.142 106.478 467.688 109.287C462.636 112.481 456.135 114.067 448.184 114.067V113.067C456.008 113.067 462.307 111.506 467.153 108.442L467.154 108.441C471.566 105.659 474.687 101.825 476.536 96.864L476.537 96.862C477.01 95.601 478.198 94.6727 479.625 94.6726V95.6726Z" fill="white"/>
<path d="M509.523 87.0421C509.523 77.5646 511.832 69.3865 516.516 62.5577C521.164 55.7482 527.663 50.5603 535.925 46.96L535.927 46.9591C544.187 43.3828 553.841 41.5987 564.844 41.5987C575.837 41.5987 585.464 43.38 593.022 46.9737C600.601 50.5772 606.249 56.0568 609.908 63.3507L610.224 63.9913C613.428 70.6643 614.856 78.9355 614.613 88.713L614.614 88.7139C614.581 90.5194 613.057 91.9608 611.281 91.961H533.983C534.643 95.6479 536.125 99.0283 538.457 102.112L538.947 102.734C541.454 105.806 544.777 108.284 548.962 110.14C553.404 112.109 558.741 113.112 564.979 113.112V114.112L563.801 114.1C558.15 113.984 553.208 113.032 548.99 111.242L548.557 111.054C544.245 109.142 540.79 106.574 538.173 103.367L537.661 102.718C534.988 99.1841 533.38 95.2649 532.813 90.961H611.281L611.512 90.9493C612.655 90.8329 613.593 89.8644 613.614 88.6964C613.863 78.7067 612.345 70.3927 609.016 63.8009C605.57 56.9324 600.318 51.722 593.279 48.211L592.593 47.877C585.439 44.4757 576.329 42.7106 565.861 42.6036L564.844 42.5987C553.948 42.5987 544.434 44.3659 536.324 47.877C528.215 51.4108 521.872 56.4851 517.342 63.1221L516.922 63.7481C512.65 70.2586 510.523 78.0231 510.523 87.0421C510.523 96.3522 512.856 104.281 517.5 110.873C522.166 117.442 528.622 122.471 536.913 125.937C544.945 129.294 554.146 131.015 564.516 131.119L565.523 131.124C574.85 131.124 582.816 129.891 589.4 127.445L590.033 127.205C596.529 124.66 601.706 121.221 605.586 116.89L605.957 116.468C609.219 112.662 611.439 108.426 612.617 103.76C612.946 102.399 611.873 101.06 610.467 100.978L610.329 100.974V99.9737C612.397 99.9737 614.093 101.912 613.589 103.995L613.587 104.005C612.37 108.827 610.075 113.201 606.717 117.118L606.714 117.122C602.67 121.797 597.224 125.461 590.397 128.136L590.395 128.137C583.544 130.799 575.236 132.124 565.523 132.124C554.635 132.124 544.963 130.386 536.527 126.859C528.083 123.329 521.471 118.189 516.685 111.452L516.683 111.448C511.903 104.664 509.523 96.5268 509.523 87.0421ZM610.329 99.9737V100.974H593.204L593.182 100.996C592.298 100.996 591.528 101.54 591.142 102.356C589.602 105.595 586.748 108.291 582.602 110.442L582.158 110.668C577.524 112.964 571.804 114.112 564.979 114.112V113.112C571.914 113.112 577.612 111.907 582.142 109.555L582.879 109.158C586.481 107.151 588.905 104.73 590.238 101.929L590.345 101.722C590.837 100.834 591.697 100.177 592.733 100.028L592.789 99.9737H610.329ZM563.802 59.4298H563.824C572.115 59.4298 578.661 61.1056 583.486 64.4581C588.311 67.8106 591.007 72.341 591.573 78.004H534.014C535.44 72.9348 538.589 68.6524 543.418 65.1358L543.891 64.7979C548.828 61.3309 555.211 59.5431 563.039 59.4346L563.802 59.4298ZM563.802 60.4298C555.766 60.4298 549.348 62.1874 544.465 65.6163C539.951 68.7859 536.934 72.5774 535.379 77.004H590.436C589.679 72.1539 587.19 68.249 582.916 65.2794C578.314 62.082 571.991 60.4298 563.824 60.4298H563.802Z" fill="white"/>
<path d="M361.107 144.398C361.107 144.911 361.523 145.326 362.036 145.326H368.628C369.141 145.326 369.556 144.911 369.556 144.398V2.05093C369.556 1.53802 369.141 1.12222 368.628 1.12222V0.122221C369.693 0.122221 370.556 0.985719 370.556 2.05093V144.398C370.556 145.463 369.693 146.326 368.628 146.326H362.036C360.971 146.326 360.107 145.463 360.107 144.398V2.05093C360.107 0.985733 360.971 0.122243 362.036 0.122221V1.12222C361.523 1.12224 361.107 1.53803 361.107 2.05093V144.398ZM368.628 0.122221V1.12222H362.036V0.122221H368.628Z" fill="white"/>
<path d="M822.508 33.606V21.2379C822.508 19.4235 823.969 17.9273 825.819 17.9273V18.9273C824.528 18.9273 823.508 19.9694 823.508 21.2379V33.606L823.52 33.8443C823.631 34.9419 824.501 35.7958 825.584 35.9049L825.819 35.9166H843.329C844.539 35.9166 845.511 35.0009 845.627 33.8414L845.639 33.606V28.0338C845.639 23.162 841.813 19.1827 837.002 18.9391L836.534 18.9273V17.9273C842.115 17.9275 846.639 22.4528 846.639 28.0338V33.606C846.639 35.4204 845.178 36.9166 843.329 36.9166H825.819C824.004 36.9166 822.508 35.4559 822.508 33.606ZM836.534 17.9273V18.9273H825.819V17.9273H836.534Z" fill="white"/>
<path d="M697.877 126.752V21.2371C697.877 19.3937 699.367 17.9042 701.21 17.9041V18.9041C699.919 18.9042 698.877 19.946 698.877 21.2371V126.752L698.889 126.991C699.008 128.169 700 129.085 701.21 129.085H719.196L719.435 129.073C720.535 128.962 721.406 128.091 721.518 126.991L721.529 126.752V85.1619H788.671L788.909 85.1502C790.009 85.0391 790.881 84.1679 790.992 83.0681L791.004 82.8289V69.781C791.004 68.5704 790.088 67.5787 788.909 67.4597L788.671 67.448V66.448C790.514 66.4482 792.004 67.9377 792.004 69.781V82.8289C792.004 84.6722 790.514 86.1617 788.671 86.1619H722.529V126.752C722.529 128.595 721.04 130.085 719.196 130.085H701.21C699.367 130.085 697.877 128.595 697.877 126.752ZM806.316 35.4851V21.2371C806.316 19.946 805.275 18.9041 803.983 18.9041V17.9041C805.827 17.9041 807.316 19.3937 807.316 21.2371V35.4851C807.316 37.3286 805.827 38.8191 803.983 38.8191H722.529V66.448H788.671V67.448H721.529V37.8191H803.983L804.223 37.8064C805.401 37.6871 806.316 36.6955 806.316 35.4851ZM803.983 17.9041V18.9041H701.21V17.9041H803.983Z" fill="white"/>
<path d="M822.508 126.775V46.767C822.508 44.9386 823.991 43.4564 825.819 43.4564V44.4564C824.543 44.4564 823.508 45.4909 823.508 46.767V126.775C823.508 127.971 824.417 128.955 825.583 129.074L825.819 129.085H843.329C844.605 129.085 845.639 128.051 845.639 126.775V46.767C845.639 45.4909 844.605 44.4564 843.329 44.4564V43.4564C845.157 43.4564 846.639 44.9386 846.639 46.767V126.775C846.639 128.603 845.157 130.085 843.329 130.085H825.819C823.991 130.085 822.508 128.603 822.508 126.775ZM843.329 43.4564V44.4564H825.819V43.4564H843.329Z" fill="white"/>
<path d="M866.773 126.775V46.7671C866.773 44.9463 868.263 43.4565 870.084 43.4565V44.4565L869.848 44.4683C868.689 44.5875 867.773 45.578 867.773 46.7671V126.775L867.785 127.009C867.896 128.092 868.766 128.961 869.848 129.073L870.084 129.085H887.594L887.829 129.073C888.911 128.962 889.781 128.092 889.892 127.009L889.904 126.775V82.644C890.962 80.4514 892.383 78.2053 894.163 75.9204L894.684 75.2632C897.516 71.7295 901.253 68.7623 905.92 66.3159C910.02 64.1867 914.777 62.9636 920.19 62.7144C921.358 62.6719 922.308 61.8129 922.422 60.6792L922.433 60.4487V44.9995C922.433 43.686 921.301 42.5761 919.987 42.6665L919.244 42.7212C915.557 43.0291 912.248 43.8941 909.317 45.3169C905.58 47.129 902.386 49.4849 899.781 52.3843C897.176 55.2611 895.069 58.2739 893.483 61.3999C891.898 64.5258 890.697 67.4028 889.904 70.0757V46.7671C889.904 45.5778 888.989 44.5873 887.829 44.4683L887.594 44.4565V43.4565C889.414 43.4565 890.904 44.9463 890.904 46.7671V64.5142C891.409 63.358 891.972 62.1697 892.592 60.9478C894.222 57.734 896.382 54.6488 899.04 51.7134C901.738 48.7112 905.038 46.2807 908.881 44.4175C912.14 42.835 915.827 41.9246 919.925 41.6685V41.6694C921.843 41.5411 923.433 43.1383 923.433 44.9995V60.4487C923.433 62.2632 921.981 63.6447 920.235 63.7124L920.236 63.7134C914.947 63.9569 910.335 65.1498 906.381 67.2036L906.38 67.2026C901.816 69.5958 898.195 72.4813 895.465 75.8892L895.463 75.8911C893.533 78.2837 892.015 80.6159 890.904 82.8716V126.775C890.904 128.596 889.414 130.085 887.594 130.085H870.084C868.263 130.085 866.773 128.596 866.773 126.775ZM887.594 43.4565V44.4565H870.084V43.4565H887.594Z" fill="white"/>
<path d="M930.992 87.0421C930.992 77.5646 933.3 69.3865 937.984 62.5577C942.632 55.7482 949.131 50.5603 957.393 46.96L957.395 46.9591C965.655 43.3828 975.31 41.5987 986.312 41.5987C997.305 41.5987 1006.93 43.38 1014.49 46.9737C1022.07 50.5772 1027.72 56.0568 1031.38 63.3507L1031.69 63.9913C1034.9 70.6643 1036.32 78.9355 1036.08 88.713L1036.08 88.7139C1036.05 90.5194 1034.53 91.9608 1032.75 91.961H955.452C956.112 95.6479 957.593 99.0283 959.925 102.112L960.416 102.734C962.923 105.806 966.246 108.284 970.43 110.14C974.872 112.109 980.209 113.112 986.448 113.112V114.112L985.269 114.1C979.619 113.984 974.676 113.032 970.459 111.242L970.025 111.054C965.714 109.142 962.259 106.574 959.641 103.367L959.13 102.718C956.457 99.1841 954.848 95.2649 954.282 90.961H1032.75L1032.98 90.9493C1034.12 90.8329 1035.06 89.8644 1035.08 88.6964C1035.33 78.7067 1033.81 70.3927 1030.48 63.8009C1027.04 56.9324 1021.79 51.722 1014.75 48.211L1014.06 47.877C1006.91 44.4757 997.798 42.7106 987.33 42.6036L986.312 42.5987C975.416 42.5987 965.902 44.3659 957.793 47.877C949.683 51.4108 943.341 56.4851 938.81 63.1221L938.39 63.7481C934.118 70.2586 931.992 78.0231 931.992 87.0421C931.992 96.3522 934.325 104.281 938.968 110.873C943.635 117.442 950.091 122.471 958.382 125.937C966.413 129.294 975.614 131.015 985.984 131.119L986.992 131.124C996.318 131.124 1004.28 129.891 1010.87 127.445L1011.5 127.205C1018 124.66 1023.17 121.221 1027.05 116.89L1027.43 116.468C1030.69 112.662 1032.91 108.426 1034.09 103.76C1034.44 102.377 1033.34 101.059 1031.96 100.978L1031.82 100.974V99.9737C1033.85 99.9737 1035.6 101.88 1035.06 104.006C1033.84 108.828 1031.54 113.201 1028.19 117.118L1028.18 117.122C1024.14 121.797 1018.69 125.461 1011.87 128.136L1011.86 128.137C1005.01 130.799 996.704 132.124 986.992 132.124C976.104 132.124 966.431 130.386 957.996 126.859C949.551 123.329 942.94 118.189 938.154 111.452L938.151 111.448C933.372 104.664 930.992 96.5268 930.992 87.0421ZM1031.82 99.9737V100.974H1014.67L1014.65 100.996C1013.74 100.996 1013 101.54 1012.61 102.356C1011.07 105.595 1008.22 108.291 1004.07 110.442L1003.63 110.668C998.992 112.964 993.273 114.112 986.448 114.112V113.112C993.382 113.112 999.08 111.907 1003.61 109.555L1004.35 109.158C1007.95 107.151 1010.37 104.73 1011.71 101.929L1011.81 101.723C1012.3 100.836 1013.15 100.175 1014.2 100.027L1014.26 99.9737H1031.82ZM985.27 59.4298H985.293C993.583 59.4298 1000.13 61.1056 1004.95 64.4581C1009.78 67.8106 1012.48 72.341 1013.04 78.004H955.482C956.909 72.9348 960.057 68.6524 964.886 65.1358L965.359 64.7979C970.296 61.3309 976.679 59.5431 984.508 59.4346L985.27 59.4298ZM985.27 60.4298C977.235 60.4298 970.816 62.1874 965.933 65.6163C961.42 68.7859 958.403 72.5774 956.847 77.004H1011.9C1011.15 72.1539 1008.66 68.249 1004.38 65.2794C999.783 62.082 993.46 60.4298 985.293 60.4298H985.27Z" fill="white"/>
<path d="M1113.78 86.9968C1113.78 81.0501 1115.14 76.1026 1117.86 72.1335L1118.13 71.7526C1120.93 67.8465 1124.64 64.8749 1129.25 62.8395L1129.7 62.6462C1134.53 60.6075 1139.87 59.5876 1145.78 59.5876C1153.15 59.5876 1159.44 61.1731 1164.68 64.3444C1169.43 67.2439 1172.83 71.1863 1174.85 76.1472C1175.21 77.0077 1176.03 77.6188 1176.98 77.6188H1193.01L1193.27 77.6042C1194.56 77.4599 1195.56 76.264 1195.35 74.9685C1194.4 68.9339 1192.23 63.6436 1188.78 59.1589L1188.44 58.7272C1184.29 53.5173 1178.65 49.5076 1171.49 46.7214C1164.34 43.9578 1156.25 42.5534 1145.78 42.5534C1135.32 42.5535 1125.99 44.2748 1117.76 47.6726C1109.54 51.0704 1103.06 56.0544 1098.35 62.6462L1097.92 63.2683C1093.49 69.7459 1091.28 77.6486 1091.28 86.9968C1091.28 96.6465 1093.64 104.734 1098.35 111.258C1103.06 117.781 1109.54 122.719 1117.76 126.072C1125.75 129.32 1135.18 130.995 1144.85 131.096L1145.78 131.101C1155.77 131.101 1164.4 129.719 1171.68 126.933C1178.7 124.256 1184.28 120.367 1188.39 115.266L1188.78 114.769C1192.4 110.08 1194.67 104.598 1195.55 98.3229C1195.76 96.9414 1194.62 95.6962 1193.22 95.696L1193.24 95.6726H1177.23V94.6726H1195.66L1195.07 95.2556C1196.09 95.9297 1196.73 97.1376 1196.54 98.4616L1196.54 98.4626C1195.64 104.898 1193.31 110.546 1189.57 115.381V115.382C1185.3 120.893 1179.43 125.049 1172.03 127.868L1172.03 127.867C1164.62 130.707 1155.86 132.101 1145.78 132.101C1135.69 132.101 1125.77 130.408 1117.39 126.999H1117.39C1109.01 123.583 1102.37 118.535 1097.54 111.843C1092.68 105.117 1090.28 96.814 1090.28 86.9968C1090.28 77.1791 1092.68 68.8558 1097.54 62.0642C1102.37 55.3042 1109 50.2103 1117.38 46.7487C1125.74 43.2935 1135.21 41.5535 1145.78 41.5534C1156.01 41.5534 1164.04 42.8834 1171.17 45.528L1171.86 45.7888L1171.86 45.7897C1179.16 48.6307 1184.95 52.7369 1189.22 58.1042H1189.22C1192.98 62.8274 1195.34 68.4272 1196.33 74.8073L1196.36 74.9968C1196.56 76.9532 1194.93 78.6188 1193.01 78.6188H1176.98C1175.58 78.6188 1174.43 77.7215 1173.93 76.5349L1173.92 76.5231C1171.99 71.7695 1168.74 67.9918 1164.16 65.1989V65.1979C1159.11 62.14 1153 60.5876 1145.78 60.5876C1139.99 60.5876 1134.78 61.5866 1130.09 63.5671C1125.43 65.5379 1121.73 68.4604 1118.94 72.3356C1116.19 76.1612 1114.78 81.018 1114.78 86.9968C1114.78 92.9714 1116.16 97.6535 1118.85 101.486C1121.48 105.229 1125.05 108.064 1129.55 109.968L1129.99 110.149L1129.99 110.151L1130.88 110.504C1135.38 112.208 1140.35 113.067 1145.78 113.067V114.067L1144.68 114.055C1139.2 113.939 1134.18 112.946 1129.61 111.077C1124.89 109.168 1121.11 106.281 1118.3 102.436L1118.03 102.061C1115.29 98.1551 1113.87 93.4409 1113.78 87.569L1113.78 86.9968ZM1177.23 95.6726C1176.25 95.6727 1175.41 96.3076 1175.07 97.2136L1174.89 97.694C1172.94 102.628 1169.74 106.478 1165.29 109.287C1160.24 112.481 1153.73 114.067 1145.78 114.067V113.067C1153.61 113.067 1159.91 111.506 1164.75 108.442L1164.75 108.441C1169.17 105.659 1172.29 101.825 1174.14 96.864L1174.14 96.862C1174.61 95.601 1175.8 94.6727 1177.23 94.6726V95.6726Z" fill="white"/>
<path d="M1207.12 87.0421C1207.12 77.5646 1209.43 69.3865 1214.12 62.5577C1218.76 55.7482 1225.26 50.5603 1233.53 46.96L1233.53 46.9591C1241.79 43.3828 1251.44 41.5987 1262.44 41.5987C1273.44 41.5987 1283.06 43.38 1290.62 46.9737C1298.2 50.5772 1303.85 56.0568 1307.51 63.3507L1307.82 63.9913C1311.03 70.6643 1312.46 78.9355 1312.21 88.713L1312.21 88.7139C1312.18 90.5194 1310.66 91.9608 1308.88 91.961H1231.58C1232.24 95.6479 1233.72 99.0283 1236.06 102.112L1236.55 102.734C1239.05 105.806 1242.38 108.284 1246.56 110.14C1251 112.109 1256.34 113.112 1262.58 113.112V114.112L1261.4 114.1C1255.75 113.984 1250.81 113.032 1246.59 111.242L1246.16 111.054C1241.85 109.142 1238.39 106.574 1235.77 103.367L1235.26 102.718C1232.59 99.1841 1230.98 95.2649 1230.41 90.961H1308.88L1309.11 90.9493C1310.26 90.8329 1311.19 89.8644 1311.21 88.6964C1311.46 78.7067 1309.95 70.3927 1306.62 63.8009C1303.17 56.9324 1297.92 51.722 1290.88 48.211L1290.19 47.877C1283.04 44.4757 1273.93 42.7106 1263.46 42.6036L1262.44 42.5987C1251.55 42.5987 1242.03 44.3659 1233.92 47.877C1225.82 51.4108 1219.47 56.4851 1214.94 63.1221L1214.52 63.7481C1210.25 70.2586 1208.12 78.0231 1208.12 87.0421C1208.12 96.3522 1210.46 104.281 1215.1 110.873C1219.77 117.442 1226.22 122.471 1234.51 125.937C1242.54 129.294 1251.75 131.015 1262.12 131.119L1263.12 131.124C1272.45 131.124 1280.42 129.891 1287 127.445L1287.63 127.205C1294.13 124.66 1299.31 121.221 1303.19 116.89L1303.56 116.468C1306.82 112.662 1309.04 108.426 1310.22 103.76C1310.55 102.399 1309.47 101.06 1308.07 100.978L1307.93 100.974V99.9737C1310 99.9737 1311.69 101.912 1311.19 103.995L1311.19 104.005C1309.97 108.827 1307.68 113.201 1304.32 117.118L1304.31 117.122C1300.27 121.797 1294.82 125.461 1288 128.136L1288 128.137C1281.14 130.799 1272.84 132.124 1263.12 132.124C1252.24 132.124 1242.56 130.386 1234.13 126.859C1225.68 123.329 1219.07 118.189 1214.29 111.452L1214.28 111.448C1209.5 104.664 1207.12 96.5268 1207.12 87.0421ZM1307.93 99.9737V100.974H1290.8L1290.78 100.996C1289.9 100.996 1289.13 101.54 1288.74 102.356C1287.2 105.595 1284.35 108.291 1280.2 110.442L1279.76 110.668C1275.12 112.964 1269.4 114.112 1262.58 114.112V113.112C1269.51 113.112 1275.21 111.907 1279.74 109.555L1280.48 109.158C1284.08 107.151 1286.51 104.73 1287.84 101.929L1287.94 101.722C1288.44 100.834 1289.3 100.177 1290.33 100.028L1290.39 99.9737H1307.93ZM1261.4 59.4298H1261.42C1269.72 59.4298 1276.26 61.1056 1281.09 64.4581C1285.91 67.8106 1288.61 72.341 1289.17 78.004H1231.61C1233.04 72.9348 1236.19 68.6524 1241.02 65.1358L1241.49 64.7979C1246.43 61.3309 1252.81 59.5431 1260.64 59.4346L1261.4 59.4298ZM1261.4 60.4298C1253.37 60.4298 1246.95 62.1874 1242.07 65.6163C1237.55 68.7859 1234.53 72.5774 1232.98 77.004H1288.04C1287.28 72.1539 1284.79 68.249 1280.52 65.2794C1275.91 62.082 1269.59 60.4298 1261.42 60.4298H1261.4Z" fill="white"/>
<path d="M1058.71 144.398C1058.71 144.911 1059.12 145.326 1059.64 145.326H1066.23C1066.74 145.326 1067.16 144.911 1067.16 144.398V2.05093C1067.16 1.53802 1066.74 1.12222 1066.23 1.12222V0.122221C1067.29 0.122221 1068.16 0.985719 1068.16 2.05093V144.398C1068.16 145.463 1067.29 146.326 1066.23 146.326H1059.64C1058.57 146.326 1057.71 145.463 1057.71 144.398V2.05093C1057.71 0.985733 1058.57 0.122243 1059.64 0.122221V1.12222C1059.12 1.12224 1058.71 1.53803 1058.71 2.05093V144.398ZM1066.23 0.122221V1.12222H1059.64V0.122221H1066.23Z" fill="white"/>
<path d="M666.877 86.8613C666.877 80.9971 662.123 76.2432 656.258 76.2432C650.394 76.2433 645.64 80.9971 645.64 86.8613C645.64 92.7256 650.394 97.4803 656.258 97.4805V98.4805L655.958 98.4766C649.68 98.3174 644.64 93.1777 644.64 86.8613C644.64 80.4449 649.842 75.2433 656.258 75.2432C662.675 75.2432 667.877 80.4448 667.877 86.8613L667.873 87.1611C667.715 93.4394 662.575 98.4805 656.258 98.4805V97.4805C662.123 97.4805 666.877 92.7257 666.877 86.8613Z" fill="white"/>
<path d="M1364.48 86.8613C1364.48 80.9971 1359.72 76.2432 1353.86 76.2432C1347.99 76.2433 1343.24 80.9971 1343.24 86.8613C1343.24 92.7256 1347.99 97.4803 1353.86 97.4805V98.4805L1353.56 98.4766C1347.28 98.3174 1342.24 93.1777 1342.24 86.8613C1342.24 80.4449 1347.44 75.2433 1353.86 75.2432C1360.28 75.2432 1365.48 80.4448 1365.48 86.8613L1365.47 87.1611C1365.31 93.4394 1360.18 98.4805 1353.86 98.4805V97.4805C1359.72 97.4805 1364.48 92.7257 1364.48 86.8613Z" fill="white"/>
</svg>
