<svg width="50" height="50" viewBox="0 0 50 50" fill="none" xmlns="http://www.w3.org/2000/svg">
<path d="M14.9409 0L19.1469 4.60251C17.1076 8.50767 15.3233 12.4128 13.7938 16.318C12.2644 20.0837 11.3722 23.7796 11.1173 27.4059L20.6763 29.7071V50H0.0288086V35.3556C0.0288086 26.7085 1.55825 19.735 4.61715 14.4351C7.80349 8.99582 11.2447 4.1841 14.9409 0ZM43.618 0L47.824 4.60251C45.7847 8.50767 44.0004 12.4128 42.4709 16.318C40.9415 20.0837 40.0493 23.7796 39.7944 27.4059L49.3534 29.7071V50H28.7059V35.3556C28.7059 26.7085 30.2354 19.735 33.2943 14.4351C36.4806 8.99582 39.9219 4.1841 43.618 0Z" fill="#FDFDFD"/>
</svg>
