<svg width="154" height="151" viewBox="0 0 154 151" fill="none" xmlns="http://www.w3.org/2000/svg">
<path d="M150.113 94.1961L75.5984 148.723C72.8985 150.69 69.1861 150.53 66.6815 148.315L3.21529 92.3354C-0.0175267 89.4824 0.0179988 84.4674 3.26858 81.6498L95.7769 1.74696C100.395 -2.24021 107.554 1.03813 107.554 7.13407L107.5 27.0522C107.483 37.7024 111.941 47.8563 119.828 55.051L150.699 83.2447C154.021 86.2749 153.719 91.5557 150.113 94.1961Z" fill="#E2610A"/>
<path d="M119.188 122.071C120.662 124.286 119.081 127.263 116.399 127.263H77.7298C77.0548 127.263 76.3976 127.263 75.7404 127.21C48.4746 126.182 26.6797 103.783 26.6797 76.3336C26.6797 48.8842 49.5403 25.3865 77.7298 25.3865C105.919 25.3865 128.78 48.1931 128.78 76.3336C128.78 90.7583 122.776 103.765 113.113 113.016L119.188 122.071Z" fill="#EEEEEE"/>
<path d="M77.7306 127.263H75.6523L75.7412 127.21C76.3984 127.245 77.0556 127.263 77.7306 127.263Z" fill="white"/>
<path d="M77.7294 84.8396C82.4481 84.8396 86.2733 81.0234 86.2733 76.3159C86.2733 71.6084 82.4481 67.7922 77.7294 67.7922C73.0108 67.7922 69.1855 71.6084 69.1855 76.3159C69.1855 81.0234 73.0108 84.8396 77.7294 84.8396Z" fill="#B7B7B7"/>
<path d="M101.229 84.8396C105.948 84.8396 109.773 81.0234 109.773 76.3159C109.773 71.6084 105.948 67.7922 101.229 67.7922C96.5108 67.7922 92.6855 71.6084 92.6855 76.3159C92.6855 81.0234 96.5108 84.8396 101.229 84.8396Z" fill="#B7B7B7"/>
<path d="M54.247 84.8396C58.9657 84.8396 62.7909 81.0234 62.7909 76.3159C62.7909 71.6084 58.9657 67.7922 54.247 67.7922C49.5283 67.7922 45.7031 71.6084 45.7031 76.3159C45.7031 81.0234 49.5283 84.8396 54.247 84.8396Z" fill="#B7B7B7"/>
</svg>
