<svg width="154" height="152" viewBox="0 0 154 152" fill="none" xmlns="http://www.w3.org/2000/svg">
<path d="M150.142 95.3554L75.618 150.008C72.9191 151.989 69.219 151.815 66.716 149.616L3.2266 93.4836C0.00533193 90.6323 0.0488599 85.6046 3.29189 82.7968L95.8162 2.67877C100.43 -1.30428 107.591 1.98228 107.569 8.07656L107.526 28.0353C107.504 38.7221 111.988 48.9083 119.845 56.1126L150.73 84.3857C154.038 87.4111 153.755 92.7218 150.142 95.3554Z" fill="#E2610A"/>
<path d="M140.979 43.445V117.817C140.979 121.974 137.627 125.348 133.47 125.348H22.9455C18.8101 125.348 15.4365 121.974 15.4365 117.817V27.0122C15.4365 22.855 18.8101 19.5032 22.9455 19.5032H51.4363C54.0482 19.5032 56.4424 20.8309 57.8136 23.0292L63.6684 32.3882C65.0396 34.5865 67.4556 35.936 70.0457 35.936H133.47C137.627 35.936 140.979 39.2878 140.979 43.445Z" fill="#EEEEEE"/>
<path d="M79.9044 101.058C90.8552 101.058 99.7326 92.1804 99.7326 81.2296C99.7326 70.2787 90.8552 61.4014 79.9044 61.4014C68.9536 61.4014 60.0762 70.2787 60.0762 81.2296C60.0762 92.1804 68.9536 101.058 79.9044 101.058Z" fill="#EEEEEE"/>
<path d="M84.2141 106.325C66.8237 109.198 51.9362 94.3106 54.8092 76.9202C56.5505 66.3858 65.0389 57.8973 75.5733 56.1343C92.9638 53.2613 107.851 68.1488 104.978 85.5392C103.237 96.0736 94.7486 104.562 84.1924 106.325H84.2141ZM82.7559 66.9517C72.5044 64.9928 63.6459 73.8513 65.6048 84.1027C66.6931 89.827 71.3073 94.4412 77.0316 95.5513C87.283 97.5101 96.1415 88.6517 94.1827 78.4002C93.0944 72.6759 88.4802 68.0617 82.7341 66.9517H82.7559Z" fill="#B7B7B7"/>
<path d="M82.8863 101.254H76.8791C75.5328 101.254 74.4414 102.345 74.4414 103.691V110.678C74.4414 112.024 75.5328 113.116 76.8791 113.116H82.8863C84.2326 113.116 85.3241 112.024 85.3241 110.678V103.691C85.3241 102.345 84.2326 101.254 82.8863 101.254Z" fill="#B7B7B7"/>
<path d="M82.8863 49.3435H76.8791C75.5328 49.3435 74.4414 50.4349 74.4414 51.7812V58.7896C74.4414 60.136 75.5328 61.2274 76.8791 61.2274H82.8863C84.2326 61.2274 85.3241 60.136 85.3241 58.7896V51.7812C85.3241 50.4349 84.2326 49.3435 82.8863 49.3435Z" fill="#B7B7B7"/>
<path d="M109.353 75.7883H102.345C100.999 75.7883 99.9072 76.8797 99.9072 78.226V84.2333C99.9072 85.5796 100.999 86.671 102.345 86.671H109.353C110.7 86.671 111.791 85.5796 111.791 84.2333V78.226C111.791 76.8797 110.7 75.7883 109.353 75.7883Z" fill="#B7B7B7"/>
<path d="M57.4432 75.7883H50.4348C49.0885 75.7883 47.9971 76.8797 47.9971 78.226V84.2333C47.9971 85.5796 49.0885 86.671 50.4348 86.671H57.4432C58.7895 86.671 59.8809 85.5796 59.8809 84.2333V78.226C59.8809 76.8797 58.7895 75.7883 57.4432 75.7883Z" fill="#B7B7B7"/>
<path d="M96.1824 93.2804L91.9347 97.5281C90.9827 98.4801 90.9827 100.024 91.9347 100.976L96.875 105.916C97.827 106.868 99.3705 106.868 100.322 105.916L104.57 101.668C105.522 100.716 105.522 99.1727 104.57 98.2207L99.6299 93.2804C98.6779 92.3284 97.1344 92.3284 96.1824 93.2804Z" fill="#B7B7B7"/>
<path d="M59.4998 56.5841L55.252 60.8318C54.3001 61.7838 54.3001 63.3273 55.252 64.2793L60.1924 69.2196C61.1443 70.1716 62.6878 70.1716 63.6398 69.2196L67.8875 64.9718C68.8395 64.0199 68.8395 62.4764 67.8876 61.5244L62.9472 56.5841C61.9953 55.6321 60.4518 55.6321 59.4998 56.5841Z" fill="#B7B7B7"/>
<path d="M96.8683 56.5852L91.9272 61.5246C90.975 62.4764 90.9747 64.0199 91.9265 64.9721L96.1736 69.2206C97.1254 70.1727 98.6689 70.173 99.621 69.2211L104.562 64.2817C105.514 63.3299 105.515 61.7864 104.563 60.8343L100.316 56.5858C99.364 55.6336 97.8205 55.6333 96.8683 56.5852Z" fill="#B7B7B7"/>
<path d="M60.1748 93.278L55.2345 98.2183C54.2825 99.1703 54.2825 100.714 55.2345 101.666L59.4822 105.913C60.4342 106.865 61.9777 106.865 62.9297 105.913L67.87 100.973C68.822 100.021 68.822 98.4777 67.87 97.5257L63.6222 93.278C62.6702 92.326 61.1268 92.326 60.1748 93.278Z" fill="#B7B7B7"/>
</svg>
