<svg width="153" height="151" viewBox="0 0 153 151" fill="none" xmlns="http://www.w3.org/2000/svg">
<path d="M149.524 94.5686L74.9949 149.062C72.2851 151.051 68.5868 150.881 66.0644 148.688L2.61357 92.6813C-0.607549 89.8418 -0.573465 84.8091 2.66469 82.0036L95.1908 2.10816C99.8094 -1.88746 106.985 1.39405 106.95 7.46399L106.899 27.3911C106.865 38.0348 111.347 48.2193 119.238 55.4115L150.12 83.6189C153.426 86.6453 153.12 91.9162 149.524 94.5686Z" fill="#E2610A"/>
<path d="M102.128 70.5949C102.128 80.1504 96.1291 89.0258 87.2156 92.5453C71.2975 98.8533 54.2887 87.3425 54.2716 70.2208C54.2375 60.6823 60.2707 51.824 69.1671 48.3214C85.0682 41.9964 102.094 53.5242 102.128 70.5949Z" fill="#CCCCCC"/>
<path d="M130.555 65.4091L128.698 55.7176C128.289 53.5412 126.175 52.13 124.011 52.5721L120.33 53.2692C118.25 53.6602 116.103 52.7081 115.114 50.8378C113.904 48.5254 112.456 46.3661 110.82 44.3598C109.473 42.6935 109.422 40.3472 110.615 38.5959L112.728 35.4844C113.956 33.6651 113.478 31.1997 111.655 29.9585L103.474 24.4157C101.668 23.1915 99.1963 23.6506 97.9522 25.4698L95.8218 28.5813C94.6288 30.3326 92.4303 31.1657 90.4022 30.5366C87.931 29.7545 85.3745 29.2274 82.767 28.9554C80.6536 28.7174 78.9664 27.0851 78.5744 25.0108L77.8586 21.3382C77.4325 19.1619 75.3703 17.7676 73.1888 18.1757L63.4743 20.029C61.3099 20.4711 59.8783 22.5454 60.3044 24.7047L61.0202 28.4113C61.4121 30.4856 60.4577 32.611 58.6001 33.5971C56.2652 34.8383 54.0667 36.2835 52.0556 37.9158C50.3854 39.242 48.0505 39.276 46.2951 38.1028L43.1592 35.9775C41.3185 34.7363 38.8473 35.1954 37.6032 37.0316L32.0642 45.1929C30.8371 47.0122 31.3143 49.4946 33.1379 50.7358L36.2738 52.8441C38.0293 54.0343 38.8644 56.2106 38.2338 58.251C37.4839 60.7163 36.9555 63.2667 36.6828 65.8681C36.4442 67.9765 34.8252 69.6597 32.7289 70.0508L29.0135 70.7649C26.8661 71.173 25.4516 73.2643 25.8436 75.4066L27.7012 85.0981C28.1273 87.2575 30.2065 88.6857 32.371 88.2606L36.0352 87.5465C38.1315 87.1385 40.2789 88.1076 41.2674 89.9949C42.4945 92.3073 43.9431 94.5006 45.5793 96.5239C46.9086 98.1732 46.9597 100.52 45.7667 102.271L43.6705 105.382C42.4263 107.202 42.9035 109.684 44.7271 110.908L52.8736 116.434C54.6972 117.675 57.2025 117.199 58.4467 115.38L60.56 112.268C61.7701 110.5 64.0027 109.718 66.0649 110.347C68.485 111.095 70.9903 111.605 73.5297 111.877C75.6771 112.115 77.4325 113.714 77.8245 115.822L78.5403 119.528C78.9834 121.688 81.0456 123.082 83.2271 122.674L92.9416 120.821C95.1061 120.379 96.5376 118.304 96.0945 116.145L95.3787 112.438C94.9867 110.364 95.9412 108.222 97.8159 107.236C100.134 106.011 102.315 104.583 104.309 102.951C105.979 101.608 108.331 101.574 110.087 102.764L113.206 104.872C115.029 106.113 117.518 105.637 118.762 103.818L124.301 95.6738C125.545 93.8715 125.068 91.3721 123.244 90.1309L120.091 88.0056C118.336 86.8154 117.518 84.6221 118.148 82.5987C118.898 80.1164 119.443 77.566 119.716 74.9476C119.955 72.8562 121.591 71.173 123.67 70.7649L127.385 70.0508C129.567 69.6427 130.981 67.5514 130.555 65.4091ZM87.2152 92.5453C71.2971 98.8533 54.2882 87.3425 54.2712 70.2208C54.2371 60.6823 60.2703 51.824 69.1667 48.3214C85.0677 41.9964 102.094 53.5242 102.128 70.5949C102.128 80.1504 96.1286 89.0257 87.2152 92.5453Z" fill="#EEEEEE"/>
</svg>
