<svg width="153" height="151" viewBox="0 0 153 151" fill="none" xmlns="http://www.w3.org/2000/svg">
<path d="M94.9633 1.75625L2.45425 81.841C-0.800951 84.6531 -0.817994 89.6978 2.40312 92.544L65.871 148.649C68.3763 150.865 72.0917 151.035 74.7845 149.058L149.296 94.4187C152.909 91.76 153.199 86.4767 149.893 83.443L119.011 55.1688C111.137 47.9596 106.655 37.768 106.689 27.0991L106.74 7.14182C106.74 1.04045 99.5819 -2.24884 94.9803 1.75625H94.9633Z" fill="#E2610A"/>
<path d="M117.307 95.3049C115.432 97.1796 112.893 98.0659 110.319 97.9807C107.729 97.8784 105.138 96.7877 103.093 94.7255C107.183 98.8158 107.439 105.207 103.672 108.939C101.798 110.814 99.2583 111.7 96.6848 111.615C94.0943 111.513 91.4697 110.439 89.4245 108.36C93.5148 112.45 93.7705 118.841 90.021 122.608C88.1122 124.482 85.5728 125.369 83.0164 125.283C80.4599 125.147 77.8353 124.09 75.7902 122.011L34.2054 80.4264C22.8889 69.127 22.8889 50.7888 34.2054 39.4893C39.8466 33.814 47.2432 31.0019 54.674 31.0019C62.1047 31.0019 69.4843 33.814 75.1425 39.4893L75.2789 39.6257L69.7058 45.1987L67.7118 47.1586C63.9112 50.9592 63.9112 57.1117 67.7118 60.9123L67.8482 61.0486C71.6487 64.8492 77.7842 64.8492 81.5677 61.0486L89.1348 53.4816L114.29 78.6369L116.744 81.0741C120.835 85.1644 121.09 91.5214 117.324 95.2879L117.307 95.3049Z" fill="#EEEEEE"/>
<path d="M77.8012 111.802L68.9389 120.665C65.1383 124.465 59.0029 124.465 55.2193 120.665L55.083 120.528C53.0378 118.483 52.0834 115.722 52.2709 113.047C49.5952 113.234 46.8683 112.28 44.7891 110.235L44.6868 110.132C42.6417 108.087 41.6872 105.326 41.8747 102.65C39.199 102.838 36.438 101.883 34.3929 99.8383L34.2906 99.7361C30.49 95.9355 30.49 89.783 34.2906 85.9824L43.1359 77.1201C46.9365 73.3195 53.089 73.3195 56.8895 77.1201L57.0259 77.2565C59.071 79.3016 60.0084 82.0285 59.838 84.7042C62.5137 84.5338 65.2406 85.4711 67.2857 87.5163L67.4221 87.6526C69.4672 89.6978 70.4216 92.4588 70.2342 95.1345C72.9099 94.947 75.6368 95.9014 77.716 97.9466L77.8183 98.0488C81.6188 101.849 81.6188 108.002 77.8183 111.802H77.8012Z" fill="#CCCCCC"/>
<path d="M118.704 74.2399L114.29 78.654L89.135 53.4986L81.5679 61.0657C77.7673 64.8662 71.6319 64.8662 67.8483 61.0657L67.712 60.9293C63.9114 57.1287 63.9114 50.9762 67.712 47.1757L69.706 45.2157L75.2791 39.6427L76.5914 38.3304L79.7102 35.2115C90.3791 24.5086 107.712 24.5086 118.381 35.2115L118.739 35.5353C129.407 46.2383 129.407 63.5539 118.739 74.2228L118.704 74.2399Z" fill="#CCCCCC"/>
</svg>
