<svg width="24" height="22" viewBox="0 0 24 22" fill="none" stroke="currentColor" xmlns="http://www.w3.org/2000/svg">
<path d="M23.9904 0.508758L22.8727 5.81367C22.8703 5.82765 22.8655 5.83931 22.8631 5.85329C22.4466 7.21448 21.4462 8.33327 20.0244 8.61763L15.417 9.53829L12.6071 10.0977C10.9484 10.431 9.41899 11.2328 8.21747 12.4029C8.20551 12.4145 8.19354 12.4285 8.18396 12.4401L0.780976 21.6282C0.484186 21.9964 -0.116573 21.6958 0.0198542 21.2459L1.42482 16.6076L2.17397 14.1276L3.9954 8.1165C4.43101 6.6784 5.64689 5.59224 7.15238 5.2939L18.2916 3.08197C19.8713 2.76731 21.3241 2.00747 22.4658 0.895671L23.2556 0.126506C23.562 -0.171837 24.0766 0.0985365 23.9904 0.511089V0.508758Z" fill="currentColor"/>
<path d="M20.7616 11.4539L20.1106 13.6029C19.797 14.6378 18.8684 15.3813 17.7674 15.4815L9.92158 16.1971C9.4381 16.2414 9.16524 15.6726 9.50751 15.3393L11.8316 13.0761C12.3198 12.6006 12.9397 12.2767 13.6171 12.1415L20.1824 10.8386C20.5534 10.764 20.8717 11.1019 20.764 11.4562L20.7616 11.4539Z" fill="currentColor"/>
</svg>
