<svg width="153" height="151" viewBox="0 0 153 151" fill="none" xmlns="http://www.w3.org/2000/svg">
<path d="M149.32 94.4191L74.7959 149.072C72.097 151.052 68.3969 150.878 65.8939 148.68L2.42624 92.5473C-0.816788 89.6961 -0.773257 84.6683 2.46977 81.8605L94.9941 1.74249C99.6083 -2.24056 106.769 1.046 106.747 7.14028L106.704 27.0991C106.704 37.7858 111.166 47.972 119.045 55.1763L149.93 83.4494C153.238 86.4748 152.933 91.7855 149.32 94.4191Z" fill="#E2610A"/>
<path d="M75.5364 114.552C99.3253 114.552 118.61 95.2672 118.61 71.4783C118.61 47.6895 99.3253 28.4048 75.5364 28.4048C51.7476 28.4048 32.4629 47.6895 32.4629 71.4783C32.4629 95.2672 51.7476 114.552 75.5364 114.552Z" fill="#B7B7B7"/>
<path d="M75.5362 123.737C62.1506 123.737 48.7649 118.644 38.5788 108.458C18.1847 88.0639 18.1847 54.9154 38.5788 34.5213C58.9729 14.1272 92.1214 14.149 112.515 34.5213C132.888 54.9154 132.888 88.0639 112.515 108.458C102.329 118.644 88.9437 123.737 75.558 123.737H75.5362ZM75.5362 34.456C66.0466 34.456 56.5569 38.069 49.3308 45.2951C34.8787 59.7473 34.8787 83.232 49.3308 97.6842C63.783 112.136 87.2677 112.136 101.72 97.6842C116.172 83.232 116.15 59.7473 101.72 45.2951C94.4938 38.069 85.0042 34.456 75.5362 34.456Z" fill="#EEEEEE"/>
<path d="M132.713 136.274C130.754 136.274 128.817 135.534 127.315 134.053L101.719 108.457C98.737 105.476 98.737 100.665 101.719 97.6837C104.701 94.7018 109.511 94.7018 112.493 97.6837L138.089 123.28C141.07 126.261 141.07 131.072 138.089 134.053C136.609 135.534 134.65 136.274 132.713 136.274Z" fill="#EEEEEE"/>
</svg>
