<svg width="153" height="151" viewBox="0 0 153 151" fill="none" xmlns="http://www.w3.org/2000/svg">
<path d="M150.051 94.4871L75.5221 149.015C72.8293 150.987 69.114 150.817 66.6087 148.606L3.14078 92.6168C-0.0803316 89.7773 -0.0462571 84.7615 3.20894 81.9561L95.718 2.04366C100.32 -1.93496 107.495 1.32955 107.478 7.4165L107.426 27.3436C107.409 37.9873 111.875 48.1548 119.749 55.347L150.63 83.5374C153.954 86.5638 153.664 91.8516 150.051 94.4871Z" fill="#E2610A"/>
<path d="M119.902 59.8527V92.2257C119.851 107.409 100.643 119.719 76.9536 119.719C53.2639 119.719 34.0394 107.409 33.9883 92.2257V59.8527H119.902Z" fill="#CCCCCC"/>
<path d="M135.105 58.3904H129.992V89.1482H135.105V58.3904Z" fill="#EEEEEE"/>
<path d="M138.495 61.5359L85.5598 79.8988C79.9185 81.8541 73.766 81.8541 68.1248 79.8988L15.1895 61.5359C8.09961 59.0706 8.09961 49.09 15.1895 46.6246L68.1248 28.2618C73.766 26.3065 79.9185 26.3065 85.5598 28.2618L138.495 46.6246C145.585 49.09 145.585 59.0706 138.495 61.5359Z" fill="#EEEEEE"/>
<path d="M139.928 79.0486V98.0066C139.928 99.2648 138.905 100.285 137.644 100.285H128.407C127.146 100.285 126.123 99.2648 126.123 98.0066V79.0486C126.123 76.6683 128.049 74.7469 130.435 74.7469H135.616C138.002 74.7469 139.928 76.6683 139.928 79.0486Z" fill="#EEEEEE"/>
</svg>
