<svg width="106" height="104" viewBox="0 0 106 104" fill="none" xmlns="http://www.w3.org/2000/svg">
<path d="M91.6927 19.1877H13.4195C7.94166 19.1877 3.50098 23.6284 3.50098 29.1062V87.3244C3.50098 92.8022 7.94166 97.2428 13.4195 97.2428H91.6927C97.1705 97.2428 101.611 92.8022 101.611 87.3244V29.1062C101.611 23.6284 97.1705 19.1877 91.6927 19.1877Z" fill="#EEEEEE"/>
<path d="M35.4877 13.0453V29.6263C35.4877 32.9325 32.8026 35.6177 29.4964 35.6177C26.1903 35.6177 23.4883 32.9325 23.4883 29.6263V13.0453C23.4883 9.73914 26.1735 7.05396 29.4964 7.05396C31.1411 7.05396 32.6514 7.72525 33.7255 8.81611C34.8164 9.89019 35.4877 11.3838 35.4877 13.0453Z" fill="#B7B7B7"/>
<path d="M83.0493 13.0453V29.6263C83.0493 32.9325 80.3641 35.6177 77.0579 35.6177C73.7518 35.6177 71.0498 32.9325 71.0498 29.6263V13.0453C71.0498 9.73914 73.735 7.05396 77.0579 7.05396C78.7026 7.05396 80.2131 7.72525 81.2871 8.81611C82.378 9.89019 83.0493 11.3838 83.0493 13.0453Z" fill="#B7B7B7"/>
<path d="M85.6177 45.7207H19.5789C15.1855 45.7207 11.624 49.2822 11.624 53.6756V81.6015C11.624 85.9949 15.1855 89.5564 19.5789 89.5564H85.6177C90.0111 89.5564 93.5727 85.9949 93.5727 81.6015V53.6756C93.5727 49.2822 90.0111 45.7207 85.6177 45.7207Z" fill="#B7B7B7"/>
</svg>
