<svg width="99" height="97" viewBox="0 0 99 97" fill="none" xmlns="http://www.w3.org/2000/svg">
<rect x="34.3203" y="54.8711" width="30.1876" height="38.3184" fill="#D9D9D9"/>
<path d="M0.248047 11.0098C0.248047 4.93465 5.17291 0.00976562 11.248 0.00976562H87.5835C93.6586 0.00976562 98.5835 4.93463 98.5835 11.0098V63.0303C98.5835 69.1055 93.6586 74.0303 87.5835 74.0303H11.248C5.17291 74.0303 0.248047 69.1055 0.248047 63.0303V11.0098Z" fill="#EEEEEE"/>
<path d="M18.293 92.7559C18.293 88.1267 22.0456 84.374 26.6748 84.374H72.1585C76.7877 84.374 80.5403 88.1267 80.5403 92.7559C80.5403 94.86 78.8346 96.5658 76.7304 96.5658H22.1029C19.9987 96.5658 18.293 94.86 18.293 92.7559Z" fill="#EEEEEE"/>
</svg>
