<svg width="106" height="105" viewBox="0 0 106 105" fill="none" xmlns="http://www.w3.org/2000/svg">
<path d="M30.1906 67.4768V99.7226C30.1906 102.546 27.808 104.824 24.8756 104.824H9.06394C6.13153 104.824 3.76562 102.546 3.76562 99.7226V67.4768C3.76562 64.6532 6.13153 62.3591 9.06394 62.3591H24.8756C27.808 62.3591 30.1906 64.6532 30.1906 67.4768Z" fill="#EEEEEE"/>
<path d="M66.2453 35.8244V99.7225C66.2453 102.546 63.8794 104.824 60.947 104.824H45.1353C42.2029 104.824 39.8203 102.546 39.8203 99.7225V35.8244C39.8203 33.0009 42.2029 30.7068 45.1353 30.7068H60.947C63.8794 30.7068 66.2453 33.0009 66.2453 35.8244Z" fill="#EEEEEE"/>
<path d="M102.318 8.21486V99.4979C102.318 102.321 99.935 104.615 97.0026 104.615H81.1909C78.2585 104.615 75.8926 102.321 75.8926 99.4979V8.21486C75.8926 5.39135 78.2585 3.11328 81.1909 3.11328H97.0026C99.935 3.11328 102.318 5.39135 102.318 8.21486Z" fill="#EEEEEE"/>
</svg>
