<svg width="125" height="105" viewBox="0 0 125 105" fill="none" xmlns="http://www.w3.org/2000/svg">
<path d="M124.341 24.3488V97.4247C124.341 101.509 121.047 104.824 116.962 104.824H8.36448C4.30115 104.824 0.986328 101.509 0.986328 97.4247V8.20238C0.986328 4.11766 4.30115 0.824219 8.36448 0.824219H36.3587C38.925 0.824219 41.2775 2.12876 42.6248 4.28875L48.3776 13.4847C49.7249 15.6447 52.0988 16.9706 54.6437 16.9706H116.962C121.047 16.9706 124.341 20.2641 124.341 24.3488Z" fill="#EEEEEE"/>
<path d="M64.3303 80.9574C75.0902 80.9574 83.8129 72.2348 83.8129 61.4748C83.8129 50.7149 75.0902 41.9922 64.3303 41.9922C53.5703 41.9922 44.8477 50.7149 44.8477 61.4748C44.8477 72.2348 53.5703 80.9574 64.3303 80.9574Z" fill="#EEEEEE"/>
<path d="M68.5636 86.133C51.4762 88.9559 36.8482 74.3279 39.6712 57.2405C41.3821 46.8897 49.7226 38.5492 60.0734 36.8169C77.1608 33.994 91.7888 48.622 88.9659 65.7094C87.255 76.0602 78.9144 84.4007 68.5422 86.133H68.5636ZM67.1308 47.4458C57.058 45.521 48.3539 54.2251 50.2786 64.2979C51.3479 69.9224 55.8817 74.4562 61.5062 75.5469C71.579 77.4717 80.2831 68.7676 78.3584 58.6948C77.2891 53.0703 72.7553 48.5364 67.1094 47.4458H67.1308Z" fill="#B7B7B7"/>
<path d="M67.2606 81.1499H61.3581C60.0353 81.1499 58.9629 82.2223 58.9629 83.5451V90.41C58.9629 91.7329 60.0353 92.8053 61.3581 92.8053H67.2606C68.5835 92.8053 69.6559 91.7329 69.6559 90.41V83.5451C69.6559 82.2223 68.5835 81.1499 67.2606 81.1499Z" fill="#B7B7B7"/>
<path d="M67.2606 30.1443H61.3581C60.0353 30.1443 58.9629 31.2167 58.9629 32.5395V39.4258C58.9629 40.7486 60.0353 41.821 61.3581 41.821H67.2606C68.5835 41.821 69.6559 40.7486 69.6559 39.4258V32.5395C69.6559 31.2167 68.5835 30.1443 67.2606 30.1443Z" fill="#B7B7B7"/>
<path d="M93.2659 56.1284H86.3796C85.0567 56.1284 83.9844 57.2008 83.9844 58.5236V64.4262C83.9844 65.749 85.0567 66.8214 86.3796 66.8214H93.2659C94.5887 66.8214 95.6611 65.749 95.6611 64.4262V58.5236C95.6611 57.2008 94.5887 56.1284 93.2659 56.1284Z" fill="#B7B7B7"/>
<path d="M42.26 56.1284H35.3738C34.0509 56.1284 32.9785 57.2008 32.9785 58.5236V64.4262C32.9785 65.749 34.0509 66.8214 35.3738 66.8214H42.26C43.5829 66.8214 44.6553 65.749 44.6553 64.4262V58.5236C44.6553 57.2008 43.5829 56.1284 42.26 56.1284Z" fill="#B7B7B7"/>
<path d="M80.3244 73.3155L76.1507 77.4892C75.2153 78.4246 75.2153 79.9412 76.1507 80.8765L81.0049 85.7308C81.9403 86.6662 83.4569 86.6661 84.3923 85.7307L88.566 81.557C89.5014 80.6216 89.5014 79.1051 88.566 78.1697L83.7118 73.3155C82.7764 72.3801 81.2598 72.3801 80.3244 73.3155Z" fill="#B7B7B7"/>
<path d="M44.2814 37.2586L40.1077 41.4323C39.1723 42.3677 39.1724 43.8843 40.1077 44.8197L44.962 49.6739C45.8974 50.6093 47.4139 50.6093 48.3493 49.6739L52.523 45.5002C53.4584 44.5648 53.4584 43.0482 52.523 42.1128L47.6688 37.2586C46.7334 36.3232 45.2168 36.3232 44.2814 37.2586Z" fill="#B7B7B7"/>
<path d="M80.9983 37.2599L76.1432 42.1132C75.2077 43.0485 75.2074 44.5651 76.1426 45.5006L80.3156 49.6751C81.2508 50.6106 82.7674 50.6109 83.703 49.6756L88.558 44.8223C89.4936 43.8871 89.4938 42.3705 88.5586 41.4349L84.3856 37.2605C83.4504 36.3249 81.9338 36.3247 80.9983 37.2599Z" fill="#B7B7B7"/>
<path d="M44.9444 73.3132L40.0902 78.1674C39.1548 79.1028 39.1548 80.6194 40.0902 81.5548L44.2639 85.7285C45.1993 86.6639 46.7159 86.6639 47.6513 85.7285L52.5055 80.8743C53.4409 79.9389 53.4409 78.4223 52.5055 77.4869L48.3317 73.3132C47.3963 72.3778 45.8798 72.3778 44.9444 73.3132Z" fill="#B7B7B7"/>
</svg>
