<svg width="106" height="106" viewBox="0 0 106 106" fill="none" xmlns="http://www.w3.org/2000/svg">
<path d="M77.1917 53.4577C77.1917 63.0132 71.1926 71.8885 62.2791 75.4081C46.361 81.7161 29.3521 70.2053 29.3351 53.0836C29.301 43.5451 35.3342 34.6868 44.2306 31.1842C60.1317 24.8592 77.1576 36.387 77.1917 53.4577Z" fill="#CCCCCC"/>
<path d="M105.619 48.272L103.761 38.5805C103.352 36.4041 101.239 34.9929 99.0743 35.435L95.3931 36.1321C93.3138 36.5232 91.1664 35.571 90.1779 33.7007C88.9679 31.3884 87.5192 29.229 85.8831 27.2227C84.5367 25.5564 84.4856 23.2101 85.6786 21.4588L87.7919 18.3473C89.019 16.528 88.5418 14.0627 86.7182 12.8215L78.5376 7.2786C76.731 6.0544 74.2598 6.51348 73.0157 8.33276L70.8853 11.4442C69.6923 13.1955 67.4938 14.0286 65.4657 13.3996C62.9944 12.6174 60.438 12.0903 57.8304 11.8183C55.7171 11.5803 54.0299 9.94801 53.6379 7.87369L52.9221 4.20112C52.496 2.02478 50.4338 0.63056 48.2523 1.03862L38.5378 2.89191C36.3734 3.33398 34.9418 5.4083 35.3678 7.56764L36.0836 11.2742C36.4756 13.3485 35.5212 15.4739 33.6635 16.46C31.3287 17.7012 29.1301 19.1464 27.1191 20.7787C25.4489 22.1049 23.114 22.1389 21.3585 20.9657L18.2226 18.8404C16.382 17.5992 13.9108 18.0583 12.6667 19.8946L7.1277 28.0558C5.90061 29.8751 6.3778 32.3575 8.20139 33.5987L11.3373 35.707C13.0927 36.8972 13.9278 39.0736 13.2972 41.1139C12.5473 43.5793 12.019 46.1297 11.7463 48.7311C11.5077 50.8394 9.88866 52.5226 7.79238 52.9137L4.07702 53.6278C1.92961 54.0359 0.515042 56.1272 0.907029 58.2695L2.7647 67.961C3.19078 70.1204 5.27001 71.5486 7.43446 71.1235L11.0987 70.4094C13.195 70.0014 15.3424 70.9705 16.3309 72.8578C17.558 75.1702 19.0066 77.3635 20.6427 79.3868C21.9721 81.0361 22.0232 83.3824 20.8302 85.1337L18.7339 88.2452C17.4898 90.0645 17.967 92.5469 19.7906 93.7711L27.9371 99.2969C29.7607 100.538 32.266 100.062 33.5102 98.2428L35.6235 95.1313C36.8335 93.363 39.0662 92.5809 41.1284 93.21C43.5485 93.9581 46.0538 94.4682 48.5932 94.7402C50.7406 94.9783 52.496 96.5765 52.888 98.6848L53.6038 102.391C54.0469 104.551 56.1091 105.945 58.2906 105.537L68.0051 103.684C70.1695 103.242 71.6011 101.167 71.158 99.0079L70.4422 95.3013C70.0502 93.227 71.0046 91.0847 72.8794 90.0985C75.1972 88.8743 77.3787 87.4461 79.3727 85.8138C81.0429 84.4706 83.3948 84.4366 85.1503 85.6268L88.2691 87.7351C90.0927 88.9763 92.581 88.5003 93.8251 86.681L99.3641 78.5367C100.608 76.7344 100.131 74.235 98.3074 72.9938L95.1545 70.8685C93.399 69.6783 92.581 67.485 93.2116 65.4617C93.9615 62.9793 94.5068 60.4289 94.7795 57.8105C95.0181 55.7191 96.6542 54.0359 98.7335 53.6278L102.449 52.9137C104.63 52.5056 106.045 50.4143 105.619 48.272ZM62.2786 75.4082C46.3605 81.7162 29.3517 70.2054 29.3346 53.0837C29.3006 43.5452 35.3337 34.6869 44.2302 31.1843C60.1312 24.8593 77.1571 36.3871 77.1912 53.4578C77.1912 63.0133 71.1921 71.8887 62.2786 75.4082Z" fill="#EEEEEE"/>
</svg>
