<svg width="102" height="99" viewBox="0 0 102 99" fill="none" xmlns="http://www.w3.org/2000/svg">
<path d="M92.4374 68.6524C90.5626 70.5227 88.0233 71.4069 85.4498 71.3219C82.8592 71.2199 80.2687 70.1317 78.2236 68.0744C82.3139 72.155 82.5695 78.531 78.803 82.2546C76.9283 84.1249 74.3889 85.009 71.8154 84.924C69.2249 84.822 66.6003 83.7508 64.5551 81.6765C68.6454 85.7571 68.9011 92.1331 65.1516 95.8907C63.2428 97.761 60.7034 98.6451 58.147 98.5601C55.5905 98.4241 52.9659 97.3699 50.9208 95.2956L9.33601 53.8091C-1.98049 42.5364 -1.98049 24.2415 9.33601 12.9688C14.9772 7.3069 22.3739 4.50146 29.8046 4.50146C37.2353 4.50146 44.6149 7.3069 50.2731 12.9688L50.4095 13.1048L44.8365 18.6647L42.8424 20.62C39.0418 24.4116 39.0418 30.5495 42.8424 34.3411L42.9788 34.4771C46.7793 38.2687 52.9148 38.2687 56.6983 34.4771L64.2654 26.928L89.4208 52.0239L91.8749 54.4552C95.9653 58.5359 96.2209 64.8779 92.4544 68.6355L92.4374 68.6524Z" fill="#EEEEEE"/>
<path d="M52.9314 85.1111L44.069 93.9525C40.2685 97.7441 34.133 97.7441 30.3495 93.9525L30.2131 93.8164C28.168 91.7761 27.2136 89.0217 27.401 86.3523C24.7253 86.5393 21.9984 85.5872 19.9192 83.5468L19.8169 83.4448C17.7718 81.4045 16.8174 78.6501 17.0048 75.9807C14.3291 76.1677 11.5682 75.2155 9.523 73.1752L9.42074 73.0732C5.62017 69.2816 5.62017 63.1437 9.42074 59.3521L18.266 50.5107C22.0666 46.7191 28.2191 46.7191 32.0197 50.5107L32.156 50.6467C34.2012 52.687 35.1385 55.4074 34.9681 58.0769C37.6438 57.9068 40.3707 58.842 42.4159 60.8823L42.5522 61.0183C44.5974 63.0586 45.5518 65.8131 45.3643 68.4825C48.04 68.2955 50.7669 69.2476 52.8461 71.2879L52.9484 71.3899C56.749 75.1815 56.749 81.3195 52.9484 85.1111H52.9314Z" fill="#CCCCCC"/>
<path d="M93.8351 47.6372L89.421 52.0409L64.2656 26.945L56.6985 34.4941C52.898 38.2857 46.7625 38.2857 42.979 34.4941L42.8426 34.3581C39.042 30.5665 39.042 24.4286 42.8426 20.637L44.8366 18.6817L50.4097 13.1218L51.722 11.8126L54.8408 8.70112C65.5097 -1.97654 82.8424 -1.97654 93.5113 8.70112L93.8692 9.02417C104.538 19.7018 104.538 36.9765 93.8692 47.6202L93.8351 47.6372Z" fill="#CCCCCC"/>
</svg>
