<svg width="106" height="105" viewBox="0 0 106 105" fill="none" xmlns="http://www.w3.org/2000/svg">
<path d="M102.67 8.60577L98.0528 31.1103C98.043 31.1696 98.0232 31.2191 98.0133 31.2784C96.2928 37.0529 92.1597 41.799 86.2864 43.0053L55.6442 49.284C48.792 50.698 42.4738 54.0993 37.5101 59.063C37.4607 59.1124 37.4112 59.1718 37.3717 59.2212L6.78883 98.1988C5.56275 99.761 3.08092 98.4855 3.64452 96.5772L20.0681 40.8794C21.8677 34.7787 26.8906 30.171 33.11 28.9053L79.1277 19.5219C85.6536 18.187 91.6555 14.9636 96.3719 10.2471L99.6349 6.98418C100.901 5.71854 103.026 6.86552 102.67 8.61566V8.60577Z" fill="#EEEEEE"/>
<path d="M86.3653 58.9626L83.6758 68.0791C82.3805 72.4693 78.5441 75.6235 73.9957 76.0487L41.5836 79.0842C39.5863 79.2721 38.4591 76.8595 39.8731 75.4455L49.4741 65.8445C51.4912 63.8274 54.0521 62.453 56.8503 61.8795L83.9725 56.3523C85.5051 56.0358 86.8201 57.4696 86.3752 58.9725L86.3653 58.9626Z" fill="#EEEEEE"/>
<path d="M98.6565 6.00669C100.895 3.76851 104.653 5.80347 104.025 8.89135L104.022 8.89067L99.4065 31.388L99.4052 31.3873C99.3982 31.4236 99.3926 31.4554 99.3863 31.4812C99.3804 31.5051 99.3742 31.5276 99.3701 31.5426L99.3627 31.5906L99.3377 31.6729C97.512 37.8004 93.0612 43.0254 86.5643 44.3599H86.5637L55.9227 50.6375C49.335 51.997 43.2596 55.2684 38.4872 60.0408C38.4861 60.0421 38.4847 60.0437 38.4831 60.0456C38.4747 60.0553 38.4639 60.0682 38.4507 60.0847L7.87592 99.0522C5.71359 101.807 1.32082 99.5628 2.31791 96.1858L18.7415 40.4882C20.6856 33.8974 26.1122 28.9188 32.8333 27.5508L78.8501 18.1671C85.1111 16.8864 90.8693 13.7939 95.3938 9.2694L98.6565 6.00669ZM102.67 8.61591C103.026 6.86583 100.9 5.71876 99.6347 6.98422L96.3713 10.2469C91.6549 14.9633 85.6534 18.1871 79.1275 19.522L33.1094 28.905C26.8902 30.1707 21.867 34.7785 20.0674 40.8791L3.64378 96.5774L3.5999 96.7542C3.24612 98.5041 5.45113 99.6376 6.67021 98.3373L6.78835 98.1989L37.3712 59.2213C37.391 59.1966 37.4133 59.1695 37.4367 59.1423L37.5096 59.0633C42.4733 54.0997 48.7917 50.6979 55.6439 49.284L86.2862 43.005C91.9758 41.8363 96.0323 37.346 97.8444 31.8167L98.0132 31.2787C98.023 31.2194 98.0424 31.1698 98.0523 31.1106L102.67 8.60579V8.61591ZM83.6959 54.9973C86.254 54.4717 88.4405 56.8654 87.7005 59.3651L87.0403 61.5942L87.0322 61.5861L85.0015 68.4707C83.5462 73.4029 79.2357 76.9471 74.1245 77.4251L41.7121 80.4603L41.7127 80.4609C38.42 80.7707 36.5695 76.7939 38.8949 74.4682L48.496 64.8671C50.7055 62.6576 53.5101 61.1525 56.5721 60.5249H56.5742L83.6959 54.9973ZM56.8503 61.8798C54.052 62.4533 51.4907 63.8275 49.4736 65.8446L39.8724 75.4457L39.7476 75.5807C38.5299 77.0075 39.6482 79.2663 41.5831 79.0844L73.9955 76.0486C78.4017 75.6366 82.1398 72.6636 83.5467 68.4869L83.6756 68.0791L86.3652 58.9627L86.3746 58.9729C86.8196 57.4699 85.5046 56.0357 83.972 56.3522L56.8503 61.8798Z" fill="#EEEEEE"/>
</svg>
