<svg width="135" height="94" viewBox="0 0 135 94" fill="none" xmlns="http://www.w3.org/2000/svg">
<path d="M110.561 33.9302V66.3032C110.51 81.4866 91.3024 93.7965 67.6127 93.7965C43.9231 93.7965 24.6986 81.4866 24.6475 66.3032V33.9302H110.561Z" fill="#CCCCCC"/>
<path d="M125.764 32.4678H120.651V63.2256H125.764V32.4678Z" fill="#EEEEEE"/>
<path d="M129.155 35.6132L76.2199 53.9761C70.5787 55.9314 64.4262 55.9314 58.785 53.9761L5.84962 35.6132C-1.24024 33.1478 -1.24024 23.1673 5.84962 20.7019L58.785 2.33904C64.4262 0.383732 70.5787 0.383732 76.2199 2.33904L129.155 20.7019C136.245 23.1673 136.245 33.1478 129.155 35.6132Z" fill="#EEEEEE"/>
<path d="M130.587 53.1259V72.0838C130.587 73.342 129.564 74.3622 128.303 74.3622H119.066C117.805 74.3622 116.782 73.342 116.782 72.0838V53.1259C116.782 50.7455 118.708 48.8242 121.094 48.8242H126.275C128.661 48.8242 130.587 50.7455 130.587 53.1259Z" fill="#EEEEEE"/>
</svg>
