<svg width="106" height="104" viewBox="0 0 106 104" fill="none" xmlns="http://www.w3.org/2000/svg">
<path d="M5.9596 50.3044C5.9596 25.1423 26.1272 4.77925 51.2188 4.30908H52.8439C77.9356 4.73061 98.1519 25.1423 98.1519 50.3044C98.1519 75.4664 77.9031 95.9267 52.7139 96.2996H51.3326C26.1597 95.8781 5.94336 75.515 5.94336 50.3044H5.9596Z" fill="#EEEEEE"/>
<path d="M51.7048 96.089L49.8359 91.5981C67.6471 84.2538 79.6241 67.652 79.6241 50.3045C79.6241 32.957 67.7446 16.2579 50.0797 8.97845L51.9486 4.48755C71.4173 12.5128 84.4995 30.9304 84.4995 50.3045C84.4995 69.6786 71.3198 87.9989 51.7048 96.089Z" fill="#B7B7B7"/>
<path d="M51.689 96.0727C51.5102 95.9916 51.364 95.943 51.2177 95.8781C31.9764 87.9502 19.6094 70.0676 19.6094 50.3044C19.6094 30.5412 31.9764 12.7073 51.1202 4.8117L51.3152 4.74685C51.429 4.71443 51.5265 4.66579 51.6402 4.61715L51.9165 4.50366L53.7691 9.01078L53.5578 9.10805C53.3303 9.20533 53.1191 9.28639 52.9078 9.36746C35.6329 16.5334 24.4847 32.6002 24.4847 50.3368C24.4847 68.0735 35.6654 84.2375 52.9891 91.3872C53.2166 91.4683 53.4603 91.5656 53.7691 91.7115L51.689 96.1051V96.0727Z" fill="#B7B7B7"/>
<path d="M54.4993 6.41675H49.624V94.5001H54.4993V6.41675Z" fill="#B7B7B7"/>
<path d="M98.1658 47.8726H6.33105V52.7364H98.1658V47.8726Z" fill="#B7B7B7"/>
</svg>
