<svg width="107" height="105" viewBox="0 0 107 105" fill="none" xmlns="http://www.w3.org/2000/svg">
<path d="M25.4279 48.5238C34.1092 48.5238 41.1469 41.4023 41.1469 32.6174C41.1469 23.8325 34.1092 16.7109 25.4279 16.7109C16.7466 16.7109 9.70898 23.8325 9.70898 32.6174C9.70898 41.4023 16.7466 48.5238 25.4279 48.5238Z" fill="#EEEEEE"/>
<path d="M48.6244 69.2278V85.8883C48.6244 87.3143 47.7712 88.4876 46.7179 88.4876H4.14741C3.09415 88.4876 2.22754 87.3143 2.22754 85.8883V69.2278C2.22754 61.0691 7.12055 54.4446 13.1468 54.4446H37.7185C43.7448 54.4446 48.6244 61.0691 48.6244 69.2278Z" fill="#EEEEEE"/>
<path d="M82.5021 48.5238C91.1835 48.5238 98.2211 41.4023 98.2211 32.6174C98.2211 23.8325 91.1835 16.7109 82.5021 16.7109C73.8208 16.7109 66.7832 23.8325 66.7832 32.6174C66.7832 41.4023 73.8208 48.5238 82.5021 48.5238Z" fill="#EEEEEE"/>
<path d="M105.702 69.2278V85.8883C105.702 87.3143 104.848 88.4876 103.795 88.4876H61.2246C60.158 88.4876 59.3047 87.3143 59.3047 85.8883V69.2278C59.3047 61.0691 64.1977 54.4446 70.224 54.4446H94.7957C100.822 54.4446 105.702 61.0691 105.702 69.2278Z" fill="#EEEEEE"/>
</svg>
