<svg width="106" height="105" viewBox="0 0 106 105" fill="none" xmlns="http://www.w3.org/2000/svg">
<path d="M93.1748 97.0606C94.5768 99.167 93.0734 101.998 90.5228 101.998H53.7501C53.1083 101.998 52.4833 101.998 51.8583 101.948C25.9299 100.97 5.2041 79.6698 5.2041 53.5668C5.2041 27.4638 26.9434 5.11865 53.7501 5.11865C80.5569 5.11865 102.296 26.8066 102.296 53.5668C102.296 67.2839 96.5869 79.6529 87.3979 88.4494L93.1748 97.0606Z" fill="#EEEEEE"/>
<path d="M53.7517 101.998H51.7754L51.8598 101.947C52.4848 101.981 53.1098 101.998 53.7517 101.998Z" fill="white"/>
<path d="M53.7498 61.6555C58.237 61.6555 61.8746 58.0265 61.8746 53.5499C61.8746 49.0733 58.237 45.4443 53.7498 45.4443C49.2626 45.4443 45.625 49.0733 45.625 53.5499C45.625 58.0265 49.2626 61.6555 53.7498 61.6555Z" fill="#B7B7B7"/>
<path d="M76.0974 61.6555C80.5846 61.6555 84.2222 58.0265 84.2222 53.5499C84.2222 49.0733 80.5846 45.4443 76.0974 45.4443C71.6102 45.4443 67.9727 49.0733 67.9727 53.5499C67.9727 58.0265 71.6102 61.6555 76.0974 61.6555Z" fill="#B7B7B7"/>
<path d="M31.4207 61.6555C35.9079 61.6555 39.5455 58.0265 39.5455 53.5499C39.5455 49.0733 35.9079 45.4443 31.4207 45.4443C26.9335 45.4443 23.2959 49.0733 23.2959 53.5499C23.2959 58.0265 26.9335 61.6555 31.4207 61.6555Z" fill="#B7B7B7"/>
</svg>
