<svg width="106" height="105" viewBox="0 0 106 105" fill="none" xmlns="http://www.w3.org/2000/svg">
<path d="M53.0294 104.338C81.8184 104.338 105.157 81.0554 105.157 52.3344C105.157 23.6135 81.8184 0.330566 53.0294 0.330566C24.2404 0.330566 0.902344 23.6135 0.902344 52.3344C0.902344 81.0554 24.2404 104.338 53.0294 104.338Z" fill="#EEEEEE"/>
<path d="M84.8695 49.7481L76.5355 56.6218C74.726 58.1319 73.9256 60.562 74.5172 62.8358L77.1966 73.2852C78.6407 78.8918 72.4641 83.3701 67.5576 80.263L58.4232 74.5003C56.4223 73.2331 53.8821 73.2331 51.8812 74.5003L42.7642 80.263C37.8577 83.3701 31.6637 78.8918 33.1078 73.2852L35.7873 62.8358C36.3788 60.562 35.5959 58.1319 33.769 56.6218L25.4523 49.7481C20.9808 46.0509 23.3297 38.8127 29.1409 38.4308L39.9108 37.7539C42.277 37.5977 44.3301 36.1049 45.2175 33.9178L49.1844 23.9024C51.3419 18.5215 58.98 18.5215 61.12 23.9024L65.1044 33.9178C65.9743 36.1049 68.0448 37.5977 70.3937 37.7539L81.181 38.4308C86.9748 38.8127 89.3411 46.0509 84.8695 49.7481Z" fill="#B7B7B7"/>
</svg>
