<svg width="107" height="105" viewBox="0 0 107 105" fill="none" xmlns="http://www.w3.org/2000/svg">
<path d="M53.5134 102.175C80.8934 102.175 103.089 79.9791 103.089 52.5991C103.089 25.2191 80.8934 3.02319 53.5134 3.02319C26.1334 3.02319 3.9375 25.2191 3.9375 52.5991C3.9375 79.9791 26.1334 102.175 53.5134 102.175Z" fill="#EEEEEE"/>
<path d="M53.5114 91.6524C43.5178 91.6524 33.5046 87.851 25.8821 80.2284C18.4947 72.841 14.4385 63.0434 14.4385 52.5992C14.4385 42.1549 18.4947 32.3573 25.8821 24.9699C41.1076 9.74441 65.8955 9.74441 81.121 24.9699C96.3465 40.1954 96.3465 64.9833 81.121 80.2088C73.4985 87.8314 63.5049 91.6328 53.4917 91.6328L53.5114 91.6524ZM53.5114 23.3435C46.0064 23.3435 38.521 26.2044 32.8188 31.9066C27.293 37.4325 24.2361 44.7807 24.2361 52.5992C24.2361 60.4176 27.2734 67.7659 32.8188 73.2917C44.2428 84.6961 62.7995 84.6961 74.2039 73.2917C85.6083 61.8873 85.6083 43.311 74.2039 31.9066C68.5017 26.2044 60.9967 23.3435 53.5114 23.3435Z" fill="#B7B7B7"/>
<path d="M53.5124 73.1546C42.1863 73.1546 32.9766 63.9448 32.9766 52.6188C32.9766 41.2928 42.1863 32.083 53.5124 32.083C64.8384 32.083 74.0482 41.2928 74.0482 52.6188C74.0482 63.9448 64.8384 73.1546 53.5124 73.1546ZM53.5124 41.861C47.5946 41.861 42.7742 46.6814 42.7742 52.5992C42.7742 58.517 47.5946 63.3374 53.5124 63.3374C59.4301 63.3374 64.2506 58.517 64.2506 52.5992C64.2506 46.6814 59.4301 41.861 53.5124 41.861Z" fill="#B7B7B7"/>
</svg>
