<svg width="153" height="151" viewBox="0 0 153 151" fill="none" xmlns="http://www.w3.org/2000/svg">
<path d="M149.3 94.4206L74.7805 149.07C72.0837 151.054 68.3778 150.88 65.8723 148.67L2.40109 92.5589C-0.817703 89.7055 -0.800253 84.6598 2.45334 81.8586L94.9806 1.75408C99.5913 -2.24767 106.76 1.04072 106.742 7.14774L106.69 27.1043C106.673 37.7872 111.144 47.9655 119.026 55.1861L149.909 83.4419C153.215 86.4693 152.919 91.7759 149.3 94.4206Z" fill="#E2610A"/>
<path d="M37.4254 81.6324C48.7545 81.6324 57.9387 72.4482 57.9387 61.1191C57.9387 49.7899 48.7545 40.6058 37.4254 40.6058C26.0962 40.6058 16.9121 49.7899 16.9121 61.1191C16.9121 72.4482 26.0962 81.6324 37.4254 81.6324Z" fill="#EEEEEE"/>
<path d="M67.6995 101.589V117.648C67.6995 119.023 66.586 120.154 65.2115 120.154H9.65681C8.2823 120.154 7.15137 119.023 7.15137 117.648V101.589C7.15137 93.7246 13.5368 87.3392 21.4011 87.3392H53.4672C61.3315 87.3392 67.6995 93.7246 67.6995 101.589Z" fill="#EEEEEE"/>
<path d="M111.91 81.6324C123.239 81.6324 132.423 72.4482 132.423 61.1191C132.423 49.7899 123.239 40.6058 111.91 40.6058C100.581 40.6058 91.3965 49.7899 91.3965 61.1191C91.3965 72.4482 100.581 81.6324 111.91 81.6324Z" fill="#EEEEEE"/>
<path d="M142.184 101.589V117.648C142.184 119.023 141.07 120.154 139.696 120.154H84.1412C82.7493 120.154 81.6357 119.023 81.6357 117.648V101.589C81.6357 93.7246 88.0211 87.3392 95.8854 87.3392H127.952C135.816 87.3392 142.184 93.7246 142.184 101.589Z" fill="#EEEEEE"/>
</svg>
