<svg width="153" height="151" viewBox="0 0 153 151" fill="none" xmlns="http://www.w3.org/2000/svg">
<path d="M149.318 94.427L74.7986 149.077C72.1018 151.043 68.3784 150.886 65.8729 148.659L2.40178 92.5479C-0.817012 89.6945 -0.782215 84.6662 2.47138 81.8476L94.9813 1.74307C99.592 -2.24128 106.76 1.04712 106.743 7.13673L106.691 27.1107C106.673 37.7762 111.145 47.9719 119.027 55.1751L149.91 83.4483C153.215 86.4757 152.92 91.7649 149.318 94.427Z" fill="#E2610A"/>
<path d="M76.1037 125.188C104.893 125.188 128.231 101.85 128.231 73.0611C128.231 44.2721 104.893 20.9341 76.1037 20.9341C47.3147 20.9341 23.9766 44.2721 23.9766 73.0611C23.9766 101.85 47.3147 125.188 76.1037 125.188Z" fill="#EEEEEE"/>
<path d="M107.944 70.4687L99.6094 77.3587C97.8 78.8724 96.9996 81.3082 97.5912 83.5875L100.271 94.0616C101.715 99.6815 95.5381 104.17 90.6316 101.056L81.4972 95.2795C79.4963 94.0094 76.9561 94.0094 74.9552 95.2795L65.8382 101.056C60.9317 104.17 54.7377 99.6815 56.1818 94.0616L58.8612 83.5875C59.4528 81.3082 58.6698 78.8724 56.843 77.3587L48.5263 70.4687C44.0548 66.7628 46.4036 59.5074 52.2149 59.1246L62.9848 58.4461C65.351 58.2895 67.4041 56.7932 68.2914 54.6009L72.2584 44.5618C74.4158 39.1681 82.054 39.1681 84.194 44.5618L88.1784 54.6009C89.0483 56.7932 91.1188 58.2895 93.4676 58.4461L104.255 59.1246C110.049 59.5074 112.415 66.7628 107.944 70.4687Z" fill="#B7B7B7"/>
</svg>
