<svg width="153" height="151" viewBox="0 0 153 151" fill="none" xmlns="http://www.w3.org/2000/svg">
<path d="M149.296 94.4191L74.772 149.072C72.0731 151.052 68.373 150.878 65.87 148.68L2.40242 92.5473C-0.818846 89.6961 -0.797104 84.6683 2.44593 81.8605L94.9702 1.74249C99.5845 -2.24056 106.745 1.046 106.745 7.14028L106.68 27.0991C106.658 37.7858 111.142 47.972 119.021 55.1763L149.906 83.4494C153.214 86.4748 152.931 91.7855 149.296 94.4191Z" fill="#E2610A"/>
<path d="M77.1453 126.697C107.558 126.697 132.211 102.043 132.211 71.6309C132.211 41.2187 107.558 16.5647 77.1453 16.5647C46.7331 16.5647 22.0791 41.2187 22.0791 71.6309C22.0791 102.043 46.7331 126.697 77.1453 126.697Z" fill="#EEEEEE"/>
<path d="M77.1442 115.009C66.0438 115.009 54.9218 110.787 46.4551 102.32C38.2495 94.1144 33.7441 83.2318 33.7441 71.6309C33.7441 60.03 38.2495 49.1473 46.4551 40.9418C63.3667 24.0301 90.8998 24.0301 107.811 40.9418C124.723 57.8534 124.723 85.3865 107.811 102.298C99.3447 110.765 88.2444 114.987 77.1224 114.987L77.1442 115.009ZM77.1442 39.1353C68.808 39.1353 60.4937 42.313 54.16 48.6467C48.0222 54.7845 44.6268 62.9465 44.6268 71.6309C44.6268 80.3152 48.0004 88.4772 54.16 94.615C66.8492 107.282 87.4609 107.282 100.128 94.615C112.796 81.9476 112.796 61.3141 100.128 48.6467C93.7946 42.313 85.4585 39.1353 77.1442 39.1353Z" fill="#B7B7B7"/>
<path d="M77.144 94.4626C64.5637 94.4626 54.334 84.2329 54.334 71.6526C54.334 59.0722 64.5637 48.8425 77.144 48.8425C89.7244 48.8425 99.9541 59.0722 99.9541 71.6526C99.9541 84.2329 89.7244 94.4626 77.144 94.4626ZM77.144 59.7034C70.5709 59.7034 65.2166 65.0577 65.2166 71.6308C65.2166 78.2039 70.5709 83.5582 77.144 83.5582C83.7172 83.5582 89.0715 78.2039 89.0715 71.6308C89.0715 65.0577 83.7172 59.7034 77.144 59.7034Z" fill="#B7B7B7"/>
</svg>
