<svg width="153" height="151" viewBox="0 0 153 151" fill="none" xmlns="http://www.w3.org/2000/svg">
<path d="M149.309 94.427L74.7893 149.077C72.0925 151.043 68.3691 150.886 65.8637 148.659L2.39251 92.5479C-0.826284 89.6945 -0.791498 84.6662 2.4621 81.8476L94.972 1.74307C99.5827 -2.24128 106.751 1.04712 106.734 7.13673L106.699 27.1107C106.664 37.7762 111.136 47.9719 119.017 55.1751L149.9 83.4483C153.206 86.4757 152.91 91.7649 149.309 94.427Z" fill="#E2610A"/>
<path d="M49.7001 93.2786V128.25C49.7001 131.313 47.2121 133.783 44.1499 133.783H27.6383C24.5761 133.783 22.1055 131.313 22.1055 128.25V93.2786C22.1055 90.2164 24.5761 87.7284 27.6383 87.7284H44.1499C47.2121 87.7284 49.7001 90.2164 49.7001 93.2786Z" fill="#EEEEEE"/>
<path d="M87.3512 58.9506V128.25C87.3512 131.313 84.8806 133.783 81.8184 133.783H65.3068C62.2446 133.783 59.7566 131.313 59.7566 128.25V58.9506C59.7566 55.8884 62.2446 53.4004 65.3068 53.4004H81.8184C84.8806 53.4004 87.3512 55.8884 87.3512 58.9506Z" fill="#EEEEEE"/>
<path d="M125.02 29.0072V128.007C125.02 131.069 122.532 133.557 119.47 133.557H102.958C99.8959 133.557 97.4253 131.069 97.4253 128.007V29.0072C97.4253 25.9449 99.8959 23.4743 102.958 23.4743H119.47C122.532 23.4743 125.02 25.9449 125.02 29.0072Z" fill="#EEEEEE"/>
</svg>
