<svg width="153" height="151" viewBox="0 0 153 151" fill="none" xmlns="http://www.w3.org/2000/svg">
<path d="M149.52 94.5518L75.0048 149.061C72.3049 151.046 68.5925 150.868 66.0879 148.653L2.62168 92.6734C-0.593379 89.8381 -0.575618 84.8054 2.67496 82.0055L95.1833 2.10267C99.8016 -1.88449 106.96 1.39384 106.96 7.47206L106.907 27.3902C106.889 38.0403 111.347 48.2121 119.234 55.4067L150.106 83.6004C153.427 86.6129 153.125 91.9114 149.52 94.5518Z" fill="#E2610A"/>
<path d="M24.3459 72.9503C24.3459 45.4477 46.3894 23.1904 73.8151 22.6765H75.5914C103.017 23.1373 125.114 45.4477 125.114 72.9503C125.114 100.453 102.982 122.816 75.4493 123.224H73.9395C46.425 122.763 24.3281 100.506 24.3281 72.9503H24.3459Z" fill="#EEEEEE"/>
<path d="M74.3484 122.994L72.3057 118.085C91.7736 110.058 104.865 91.9115 104.865 72.9503C104.865 53.9891 91.8802 35.7367 72.5721 27.7801L74.6148 22.8715C95.8946 31.6432 110.194 51.774 110.194 72.9503C110.194 94.1266 95.788 114.151 74.3484 122.994Z" fill="#B7B7B7"/>
<path d="M74.3303 122.976C74.1349 122.887 73.975 122.834 73.8151 122.763C52.784 114.098 39.2666 94.5519 39.2666 72.9503C39.2666 51.3487 52.784 31.8559 73.7085 23.2259L73.9217 23.155C74.046 23.1195 74.1526 23.0664 74.277 23.0132L74.5789 22.8892L76.6039 27.8155L76.373 27.9219C76.1243 28.0282 75.8934 28.1168 75.6625 28.2054C56.7807 36.038 44.5954 53.5992 44.5954 72.9857C44.5954 92.3722 56.8162 110.04 75.7513 117.855C75.9999 117.943 76.2664 118.05 76.6039 118.209L74.3303 123.011V122.976Z" fill="#B7B7B7"/>
<path d="M77.403 24.9802H72.0742V121.257H77.403V24.9802Z" fill="#B7B7B7"/>
<path d="M125.132 70.2921H24.7549V75.6083H125.132V70.2921Z" fill="#B7B7B7"/>
</svg>
