<svg width="107" height="104" viewBox="0 0 107 104" fill="none" xmlns="http://www.w3.org/2000/svg">
<path d="M103.84 14.0068V81.8244C103.84 86.7374 99.8372 90.7311 94.8975 90.7311H90.5317V92.5246C90.5317 95.2373 88.3111 97.4526 85.592 97.4526H76.6793C73.9602 97.4526 71.7395 95.2373 71.7395 92.5246V90.7311H35.1067V92.5246C35.1067 95.2373 32.8861 97.4526 30.167 97.4526H21.2543C18.5352 97.4526 16.3145 95.2373 16.3145 92.5246V90.7311H11.9337C7.00903 90.7311 3.00586 86.7374 3.00586 81.8244V14.0068C3.00586 9.07873 7.00903 5.1001 11.9337 5.1001H94.8975C99.8372 5.1001 103.84 9.07873 103.84 14.0068Z" fill="#EEEEEE"/>
<path d="M71.7832 45.8359H68.5958C67.206 40.2447 62.7949 35.8441 57.1905 34.4576V31.2928C57.1905 30.2529 56.7675 29.3185 56.0878 28.6253C55.408 27.9471 54.4562 27.5251 53.4139 27.5251C51.3292 27.5251 49.6373 29.2131 49.6373 31.2928V34.4425C44.0631 35.814 39.5917 40.2598 38.217 45.8359H35.0598C34.0174 45.8359 33.0809 46.2579 32.386 46.9361C31.7062 47.6142 31.2832 48.5637 31.2832 49.6035C31.2832 51.6833 32.9751 53.3712 35.0598 53.3712H38.2321C39.6219 58.9624 44.0329 63.363 49.6373 64.7495V67.9143C49.6373 69.9941 51.3292 71.682 53.4139 71.682C55.4986 71.682 57.1905 69.9941 57.1905 67.9143V64.7646C62.7798 63.3931 67.2513 58.9322 68.6108 53.3712H71.7832C72.8255 53.3712 73.7772 52.9492 74.457 52.271C75.1368 51.5929 75.5597 50.6434 75.5597 49.6035C75.5597 47.5238 73.8678 45.8359 71.7832 45.8359ZM51.5559 57.4704C48.595 56.8073 46.1931 54.4111 45.5284 51.4572C44.2142 45.5646 49.3805 40.4256 55.272 41.7367C58.2328 42.3998 60.6347 44.796 61.2994 47.7499C62.6136 53.6274 57.4624 58.7815 51.5559 57.4704Z" fill="#B7B7B7"/>
</svg>
